<svg width="16" height="8" viewBox="0 0 16 8" fill="none" xmlns="http://www.w3.org/2000/svg">
<path d="M1.34901 0.214985C1.27268 0.146312 1.18288 0.0926245 1.08476 0.0569887C0.986633 0.0213529 0.882096 0.00446636 0.777116 0.0072937C0.672136 0.010121 0.568769 0.0326067 0.472916 0.0734668C0.377064 0.114327 0.290603 0.172761 0.218471 0.245433C0.146339 0.318106 0.0899478 0.403593 0.0525173 0.497013C0.0150869 0.590434 -0.00264992 0.689959 0.000319814 0.789905C0.00328955 0.889852 0.0269075 0.988263 0.0698253 1.07952C0.112743 1.17078 0.17412 1.25309 0.250452 1.32177L7.44623 7.79193C7.59468 7.92555 7.79122 8 7.99551 8C8.1998 8 8.39634 7.92555 8.54478 7.79193L15.7414 1.32177C15.8194 1.25354 15.8824 1.17125 15.9267 1.07966C15.971 0.988063 15.9957 0.889001 15.9995 0.788223C16.0033 0.687445 15.9859 0.586959 15.9486 0.492604C15.9112 0.398248 15.8545 0.311903 15.7818 0.238585C15.7091 0.165266 15.6218 0.106435 15.525 0.0655079C15.4282 0.0245813 15.3238 0.00237541 15.2179 0.000179768C15.112 -0.00201588 15.0067 0.0158423 14.9081 0.0527177C14.8095 0.0895931 14.7196 0.14475 14.6436 0.214985L7.99551 6.1919L1.34901 0.214985Z" fill="white"/>
</svg>
