<svg width="16" height="20" viewBox="0 0 16 20" fill="none" xmlns="http://www.w3.org/2000/svg">
<path d="M11.4998 10.7498C11.4998 10.5508 11.4207 10.3601 11.2801 10.2194C11.1394 10.0788 10.9487 9.99976 10.7498 9.99976H4.74976C4.55084 9.99976 4.36008 10.0788 4.21943 10.2194C4.07877 10.3601 3.99976 10.5508 3.99976 10.7498C3.99976 10.9487 4.07877 11.1394 4.21943 11.2801C4.36008 11.4207 4.55084 11.4998 4.74976 11.4998H10.7498C10.9487 11.4998 11.1394 11.4207 11.2801 11.2801C11.4207 11.1394 11.4998 10.9487 11.4998 10.7498ZM11.4998 14.7498C11.4998 14.5508 11.4207 14.3601 11.2801 14.2194C11.1394 14.0788 10.9487 13.9998 10.7498 13.9998H4.74976C4.55084 13.9998 4.36008 14.0788 4.21943 14.2194C4.07877 14.3601 3.99976 14.5508 3.99976 14.7498C3.99976 14.9487 4.07877 15.1394 4.21943 15.2801C4.36008 15.4207 4.55084 15.4998 4.74976 15.4998H10.7498C10.9487 15.4998 11.1394 15.4207 11.2801 15.2801C11.4207 15.1394 11.4998 14.9487 11.4998 14.7498Z" fill="#7E7E7E"/>
<path fill-rule="evenodd" clip-rule="evenodd" d="M2.75 0C2.02065 0 1.32118 0.289731 0.805456 0.805456C0.289731 1.32118 0 2.02065 0 2.75V16.75C0 17.4793 0.289731 18.1788 0.805456 18.6945C1.32118 19.2103 2.02065 19.5 2.75 19.5H12.75C13.4793 19.5 14.1788 19.2103 14.6945 18.6945C15.2103 18.1788 15.5 17.4793 15.5 16.75V5.718C15.5 5.337 15.376 4.967 15.146 4.663L12.148 0.695C11.9849 0.479116 11.7739 0.303999 11.5317 0.183408C11.2895 0.0628167 11.0226 3.64936e-05 10.752 0H2.75ZM1.5 2.75C1.5 2.06 2.06 1.5 2.75 1.5H10V5.897C10 6.311 10.336 6.647 10.75 6.647H14V16.75C14 17.44 13.44 18 12.75 18H2.75C2.06 18 1.5 17.44 1.5 16.75V2.75Z" fill="#7E7E7E"/>
</svg>
