<svg width="28" height="28" viewBox="0 0 28 28" fill="none" xmlns="http://www.w3.org/2000/svg">
<path fill-rule="evenodd" clip-rule="evenodd" d="M4.1005 4.1005C6.72601 1.475 10.287 0 14 0C17.713 0 21.274 1.475 23.8995 4.1005C26.525 6.72601 28 10.287 28 14C28 15.8385 27.6379 17.659 26.9343 19.3576C26.2307 21.0561 25.1995 22.5995 23.8995 23.8995C22.5995 25.1995 21.0561 26.2307 19.3576 26.9343C17.659 27.6379 15.8385 28 14 28C12.1615 28 10.341 27.6379 8.64243 26.9343C6.94387 26.2307 5.40052 25.1995 4.1005 23.8995C2.80048 22.5995 1.76925 21.0561 1.06569 19.3576C0.362121 17.659 0 15.8385 0 14C5.96046e-08 10.287 1.475 6.72601 4.1005 4.1005ZM14 2C10.8174 2 7.76515 3.26428 5.51472 5.51472C4.58511 6.44433 3.82377 7.51075 3.25031 8.66667H24.7497C24.1762 7.51075 23.4149 6.44433 22.4853 5.51472C20.2348 3.26428 17.1826 2 14 2ZM25.5278 10.6667H2.47223C2.16165 11.7406 2 12.862 2 14C2 15.13 2.1596 16.2521 2.47225 17.3333H25.5277C25.8404 16.2521 26 15.13 26 14C26 12.862 25.8384 11.7406 25.5278 10.6667ZM24.7497 19.3333H3.25032C3.82829 20.4983 4.59262 21.5632 5.51472 22.4853C6.62902 23.5996 7.95189 24.4835 9.4078 25.0866C10.8637 25.6896 12.4241 26 14 26C15.5759 26 17.1363 25.6896 18.5922 25.0866C20.0481 24.4835 21.371 23.5996 22.4853 22.4853C23.4074 21.5632 24.1717 20.4983 24.7497 19.3333Z" fill="white"/>
<path fill-rule="evenodd" clip-rule="evenodd" d="M14.0004 0.307884C13.9441 0.249226 13.8797 0.196532 13.8076 0.151525C13.339 -0.140861 12.7222 0.00193956 12.4298 0.470479C9.89731 4.52872 8.55469 9.21629 8.55469 13.9999C8.55469 18.7835 9.89731 23.4711 12.4298 27.5293C12.7222 27.9978 13.339 28.1406 13.8076 27.8483C13.8797 27.8032 13.9441 27.7506 14.0004 27.6919C14.0567 27.7506 14.1211 27.8032 14.1932 27.8483C14.6617 28.1406 15.2786 27.9978 15.571 27.5293C18.1035 23.4711 19.4461 18.7835 19.4461 13.9999C19.4461 9.21629 18.1035 4.52872 15.571 0.470479C15.2786 0.00193956 14.6617 -0.140861 14.1932 0.151525C14.1211 0.196532 14.0567 0.249226 14.0004 0.307884ZM14.0004 26.266C16.2531 22.5728 17.4461 18.329 17.4461 13.9999C17.4461 9.67076 16.2531 5.42697 14.0004 1.73376C11.7477 5.42697 10.5547 9.67076 10.5547 13.9999C10.5547 18.329 11.7477 22.5728 14.0004 26.266Z" fill="white"/>
</svg>
