<svg width="23" height="28" viewBox="0 0 23 28" fill="none" xmlns="http://www.w3.org/2000/svg">
<path fill-rule="evenodd" clip-rule="evenodd" d="M11.4 8.5C9.79837 8.5 8.5 9.79837 8.5 11.4C8.5 13.0016 9.79837 14.3 11.4 14.3C13.0016 14.3 14.3 13.0016 14.3 11.4C14.3 9.79837 13.0016 8.5 11.4 8.5ZM6.5 11.4C6.5 8.6938 8.6938 6.5 11.4 6.5C14.1062 6.5 16.3 8.6938 16.3 11.4C16.3 14.1062 14.1062 16.3 11.4 16.3C8.6938 16.3 6.5 14.1062 6.5 11.4Z" fill="#B40E5D"/>
<path fill-rule="evenodd" clip-rule="evenodd" d="M3.33898 3.33898C5.4769 1.20107 8.37653 0 11.4 0C14.4235 0 17.3231 1.20107 19.461 3.33898C21.5989 5.4769 22.8 8.37653 22.8 11.4C22.8 12.7004 22.662 13.8307 22.3095 14.8941C21.9555 15.962 21.4018 16.9128 20.6303 17.8754C20.6223 17.8854 20.6141 17.8952 20.6057 17.9049L12.1557 27.6549C11.9657 27.8741 11.69 28 11.4 28C11.11 28 10.8343 27.8741 10.6443 27.6549L2.19431 17.9049C2.18591 17.8952 2.17771 17.8854 2.16969 17.8754C1.39824 16.9128 0.844492 15.962 0.490514 14.8941C0.138013 13.8307 0 12.7004 0 11.4C0 8.37653 1.20107 5.4769 3.33898 3.33898ZM11.4 2C8.90696 2 6.51604 2.99035 4.7532 4.7532C2.99035 6.51604 2 8.90696 2 11.4C2 12.5592 2.12329 13.4634 2.38894 14.2648C2.65152 15.057 3.06932 15.7972 3.71854 16.6099L11.4 25.4731L19.0815 16.6099C19.7307 15.7972 20.1485 15.057 20.4111 14.2648C20.6767 13.4634 20.8 12.5592 20.8 11.4C20.8 8.90696 19.8096 6.51604 18.0468 4.7532C16.284 2.99035 13.893 2 11.4 2Z" fill="#B40E5D"/>
</svg>
