<svg width="32" height="26" viewBox="0 0 32 26" fill="none" xmlns="http://www.w3.org/2000/svg">
<path fill-rule="evenodd" clip-rule="evenodd" d="M4 2C2.89543 2 2 2.89543 2 4V22C2 23.1046 2.89543 24 4 24H28C29.1046 24 30 23.1046 30 22V4C30 2.89543 29.1046 2 28 2H4ZM0 4C0 1.79086 1.79086 0 4 0H28C30.2091 0 32 1.79086 32 4V22C32 24.2091 30.2091 26 28 26H4C1.79086 26 0 24.2091 0 22V4Z" fill="white"/>
<path fill-rule="evenodd" clip-rule="evenodd" d="M0.156117 4.96356C0.452322 4.49742 1.07032 4.35967 1.53645 4.65587L14.9885 13.204C15.2919 13.3934 15.6424 13.4939 16.0001 13.4939C16.3579 13.4939 16.7084 13.3934 17.0118 13.204C17.0126 13.2035 17.0134 13.203 17.0142 13.2025L30.4638 4.65587C30.9299 4.35967 31.5479 4.49742 31.8441 4.96356C32.1403 5.42969 32.0026 6.04769 31.5365 6.34389L18.0761 14.8973C17.4538 15.2872 16.7344 15.4939 16.0001 15.4939C15.2659 15.4939 14.5464 15.2871 13.9242 14.8973L13.9188 14.8939L0.463799 6.34389C-0.00233442 6.04769 -0.140089 5.42969 0.156117 4.96356Z" fill="white"/>
</svg>
