<svg width="28" height="29" viewBox="0 0 28 29" fill="none" xmlns="http://www.w3.org/2000/svg">
<path fill-rule="evenodd" clip-rule="evenodd" d="M2.25915 4.2163C2.20052 4.28234 2.13731 4.34385 2.10103 4.37915C2.09697 4.3831 2.09325 4.38672 2.08991 4.38999L2.08474 4.39504C2.02451 4.45387 1.96495 4.51205 1.89943 4.58101C1.76735 4.72004 1.61814 4.89605 1.47944 5.1208C1.2104 5.55674 0.946733 6.2297 1.00932 7.25431C1.13816 9.3637 2.66315 13.1004 8.78513 19.2207C14.9064 25.3402 18.6425 26.8631 20.7511 26.9908C21.7752 27.0528 22.4478 26.7888 22.8836 26.5195C23.1082 26.3806 23.2842 26.2313 23.4232 26.0991C23.4942 26.0316 23.5537 25.9705 23.6143 25.9084C23.6175 25.9051 23.6211 25.9014 23.6251 25.8973C23.6604 25.861 23.722 25.7977 23.7883 25.7388C24.8542 24.6705 25.4582 23.8975 25.761 23.3054C26.0444 22.7512 26.0336 22.4208 25.9427 22.1463C25.8276 21.7983 25.5329 21.386 24.9379 20.7759C24.6495 20.4802 24.3174 20.1638 23.9352 19.8002L23.9136 19.7797C23.5413 19.4255 23.1282 19.0326 22.6915 18.5961C21.9346 17.8398 21.4294 17.7292 21.0488 17.7392C20.8209 17.7452 20.5717 17.7974 20.2596 17.8938C20.1038 17.9419 19.9433 17.9973 19.7642 18.06C19.7464 18.0662 19.7284 18.0725 19.7102 18.0789C19.5504 18.1349 19.3756 18.1962 19.197 18.254C18.3818 18.5181 17.3673 18.7536 16.1312 18.4508C14.9166 18.1532 13.6189 17.3693 12.1276 15.8784C10.6362 14.3875 9.85195 13.0899 9.55379 11.8754C9.25036 10.6393 9.48507 9.62456 9.74845 8.80904C9.80612 8.63046 9.86717 8.45572 9.92302 8.29585C9.92941 8.27756 9.93573 8.25947 9.94197 8.24158C10.0045 8.06239 10.0598 7.90188 10.1078 7.746C10.2039 7.43371 10.2558 7.18434 10.2616 6.95635C10.2713 6.57531 10.1602 6.06971 9.40306 5.31283C8.96054 4.87044 8.5631 4.45212 8.20532 4.07556L8.1985 4.06839C7.83493 3.68573 7.51881 3.35329 7.22324 3.0643C6.6134 2.46805 6.20209 2.17281 5.85497 2.05738C5.58186 1.96657 5.25259 1.95513 4.69791 2.23887C4.10515 2.5421 3.33059 3.14746 2.25915 4.2163ZM9.64904 2.69146C10.0101 3.07143 10.3927 3.4742 10.8171 3.89842C11.8646 4.94568 12.2878 5.95447 12.261 7.00727C12.2485 7.4962 12.1395 7.94361 12.0193 8.33412C11.9592 8.52965 11.8926 8.72204 11.8303 8.90053C11.824 8.91858 11.8177 8.93648 11.8115 8.95425C11.7547 9.11712 11.7016 9.26908 11.6517 9.4237C11.4364 10.0902 11.3212 10.686 11.4961 11.3986C11.6763 12.1325 12.1986 13.1214 13.5416 14.464C14.8846 15.8067 15.8734 16.3285 16.6071 16.5082C17.3192 16.6827 17.9146 16.5671 18.5807 16.3514C18.7353 16.3013 18.8873 16.248 19.0503 16.191C19.0679 16.1848 19.0856 16.1786 19.1035 16.1723C19.2819 16.1099 19.4742 16.0431 19.6696 15.9828C20.06 15.8623 20.5072 15.7528 20.9961 15.7399C22.0488 15.7122 23.0578 16.1346 24.1054 17.1815L24.1056 17.1817C24.5244 17.6004 24.9221 17.9787 25.2976 18.3359L25.3136 18.3511C25.6896 18.7087 26.0502 19.0519 26.3697 19.3796C26.9906 20.0163 27.5728 20.7059 27.8415 21.518C28.1345 22.4034 28.0145 23.2911 27.5417 24.2159C27.0907 25.098 26.2988 26.0571 25.1765 27.1791C25.1555 27.2001 25.1336 27.2201 25.1109 27.2391C25.1111 27.2394 25.0943 27.2555 25.0454 27.3056L25.0357 27.3155C24.9786 27.374 24.8978 27.4568 24.8014 27.5484C24.5947 27.745 24.3096 27.9893 23.935 28.2208C23.1723 28.6922 22.0935 29.0757 20.6302 28.9871C17.7638 28.8136 13.5803 26.8426 7.37112 20.6351C1.16109 14.4268 -0.811853 10.2431 -0.986963 7.37624C-1.07636 5.91272 -0.693501 4.83356 -0.22254 4.07043C0.00875814 3.69564 0.252918 3.41037 0.449455 3.20349C0.541306 3.10681 0.624276 3.02579 0.682854 2.96859C0.686085 2.96543 0.689242 2.96235 0.692322 2.95934C0.742598 2.91023 0.758702 2.8934 0.758951 2.89363M0.758953 2.89365C0.777996 2.87087 0.798045 2.84895 0.819043 2.82795C1.94386 1.70305 2.90448 0.909809 3.78707 0.458321C4.71249 -0.0150778 5.60055 -0.134893 6.48605 0.15956C7.29753 0.4294 7.98609 1.01307 8.62143 1.63425C8.94699 1.95255 9.28819 2.31167 9.64365 2.68578L9.64841 2.6908L9.64904 2.69146" fill="white"/>
</svg>
