<svg width="24" height="24" viewBox="0 0 24 24" fill="none" xmlns="http://www.w3.org/2000/svg">
<path d="M12 21.8182C13.2893 21.8182 14.5661 21.5642 15.7573 21.0708C16.9485 20.5774 18.0308 19.8542 18.9425 18.9425C19.8542 18.0308 20.5774 16.9485 21.0708 15.7573C21.5642 14.5661 21.8182 13.2893 21.8182 12C21.8182 10.7107 21.5642 9.43394 21.0708 8.24274C20.5774 7.05155 19.8542 5.9692 18.9425 5.0575C18.0308 4.14579 16.9485 3.42259 15.7573 2.92918C14.5661 2.43577 13.2893 2.18182 12 2.18182C9.39606 2.18182 6.89876 3.21623 5.0575 5.0575C3.21623 6.89876 2.18182 9.39606 2.18182 12C2.18182 14.6039 3.21623 17.1012 5.0575 18.9425C6.89876 20.7838 9.39606 21.8182 12 21.8182ZM24 12C24 18.6273 18.6273 24 12 24C5.37273 24 0 18.6273 0 12C0 5.37273 5.37273 0 12 0C18.6273 0 24 5.37273 24 12ZM15.2727 16.8153L10.9091 12.4516V4.90909H13.0909V11.5484L16.8153 15.2727L15.2727 16.8153Z" fill="#B40E5D"/>
</svg>
