<svg width="40" height="40" viewBox="0 0 40 40" fill="none" xmlns="http://www.w3.org/2000/svg">
<path id="Vector" d="M29.1394 32.6182L21.2699 28.2623C24.1947 25.9632 24.9897 21.4449 24.9897 18.911V13.6372C24.9897 10.1455 20.3462 6.25663 15.6815 6.25663C11.0193 6.25663 6.25211 10.1455 6.25211 13.6372V18.911C6.25211 21.2151 7.22705 25.8745 10.1819 28.2423L2.10987 32.6169C2.10987 32.6169 0 33.556 0 34.7262V37.8907C0 39.0559 0.946191 40 2.10987 40H29.1394C30.3031 40 31.2493 39.0546 31.2493 37.8907V34.7262C31.2493 33.4849 29.1382 32.6169 29.1382 32.6169L29.1394 32.6182ZM28.7495 37.5048H2.49984V35.2719C2.67858 35.1408 2.92982 34.9897 3.1273 34.8998C3.18605 34.8736 3.2448 34.8448 3.30104 34.8124L11.3743 30.4377C12.1105 30.0381 12.598 29.2988 12.673 28.4658C12.748 27.6328 12.3992 26.8174 11.7468 26.2941C9.65065 24.6144 8.75195 20.8967 8.75195 18.9123V13.6385C8.75195 11.8439 12.1367 8.75554 15.6815 8.75554C19.2925 8.75554 22.4898 11.8027 22.4898 13.6385V18.9123C22.4898 20.8679 21.8824 24.6032 19.725 26.2991C19.0651 26.8186 18.7088 27.6353 18.7788 28.4708C18.8488 29.3063 19.3363 30.0531 20.0725 30.4552L27.942 34.8111C28.0107 34.8486 28.0995 34.8898 28.172 34.9223C28.357 35.0009 28.5832 35.1308 28.7495 35.2457V37.5048ZM37.8876 26.4002L29.9006 22.0443C32.8255 19.7452 33.7379 15.227 33.7379 12.6931V7.41929C33.7379 3.92757 28.9782 0 24.3135 0C21.2824 0 18.1839 1.64721 16.3802 3.75523C17.4089 3.81892 18.5426 3.82017 19.5225 4.13238C20.8399 3.10709 22.5048 2.49891 24.3135 2.49891C27.9245 2.49891 31.238 5.58352 31.238 7.42054V12.6943C31.238 14.65 30.5131 18.3853 28.357 20.0812C27.6958 20.6007 27.3408 21.4174 27.4108 22.2529C27.4808 23.0896 27.967 23.8352 28.7045 24.2373L36.6915 28.5932C36.7602 28.6307 36.8489 28.6719 36.9214 28.7043C37.1064 28.783 37.3327 28.9129 37.4989 29.0278V31.2495H32.453C33.2154 31.8239 33.4454 32.6456 33.7416 33.7471H37.8901C39.0538 33.7471 40 32.8018 40 31.6378V28.512C39.9987 27.2694 37.8876 26.4002 37.8876 26.4002Z" fill="white"/>
</svg>
