<svg width="35" height="38" viewBox="0 0 35 38" fill="none" xmlns="http://www.w3.org/2000/svg">
<path id="Vector" d="M25.6783 1.78125C25.6783 1.30883 25.8624 0.855765 26.1902 0.521716C26.518 0.187667 26.9626 0 27.4261 0H33.2522C33.7157 0 34.1603 0.187667 34.4881 0.521716C34.8159 0.855765 35 1.30883 35 1.78125V7.71875C35 8.19117 34.8159 8.64423 34.4881 8.97828C34.1603 9.31233 33.7157 9.5 33.2522 9.5C32.7886 9.5 32.3441 9.31233 32.0163 8.97828C31.6885 8.64423 31.5044 8.19117 31.5044 7.71875V6.08L21.0874 16.6962C20.7596 17.0298 20.3154 17.2172 19.8522 17.2172C19.3891 17.2172 18.9448 17.0298 18.6171 16.6962L12.8609 10.83L3.02655 20.8525C2.86653 21.0275 2.67357 21.1679 2.45917 21.2652C2.24478 21.3626 2.01333 21.4149 1.77865 21.4192C1.54397 21.4234 1.31086 21.3794 1.09323 21.2898C0.875594 21.2002 0.677895 21.0669 0.511925 20.8977C0.345955 20.7286 0.215114 20.5271 0.127208 20.3053C0.0393017 20.0835 -0.00386866 19.8459 0.00027201 19.6068C0.00441268 19.3676 0.05578 19.1317 0.151309 18.9132C0.246837 18.6947 0.384571 18.4981 0.556292 18.335L11.6258 7.05375C11.9535 6.72018 12.3978 6.53282 12.8609 6.53282C13.3241 6.53282 13.7684 6.72018 14.0961 7.05375L19.8522 12.92L29.0341 3.5625H27.4261C26.9626 3.5625 26.518 3.37483 26.1902 3.04078C25.8624 2.70673 25.6783 2.25367 25.6783 1.78125ZM1.79142 28.5C2.25497 28.5 2.69953 28.6877 3.02731 29.0217C3.35509 29.3558 3.53924 29.8088 3.53924 30.2812V36.2188C3.53924 36.6912 3.35509 37.1442 3.02731 37.4783C2.69953 37.8123 2.25497 38 1.79142 38C1.32787 38 0.883303 37.8123 0.555523 37.4783C0.227743 37.1442 0.0435985 36.6912 0.0435985 36.2188V30.2812C0.0435985 29.8088 0.227743 29.3558 0.555523 29.0217C0.883303 28.6877 1.32787 28.5 1.79142 28.5ZM12.8609 23.1562C12.8609 22.6838 12.6768 22.2308 12.349 21.8967C12.0212 21.5627 11.5767 21.375 11.1131 21.375C10.6496 21.375 10.205 21.5627 9.87723 21.8967C9.54945 22.2308 9.3653 22.6838 9.3653 23.1562V36.2188C9.3653 36.6912 9.54945 37.1442 9.87723 37.4783C10.205 37.8123 10.6496 38 11.1131 38C11.5767 38 12.0212 37.8123 12.349 37.4783C12.6768 37.1442 12.8609 36.6912 12.8609 36.2188V23.1562ZM20.4348 26.125C20.8984 26.125 21.3429 26.3127 21.6707 26.6467C21.9985 26.9808 22.1827 27.4338 22.1827 27.9062V36.2188C22.1827 36.6912 21.9985 37.1442 21.6707 37.4783C21.3429 37.8123 20.8984 38 20.4348 38C19.9713 38 19.5267 37.8123 19.1989 37.4783C18.8712 37.1442 18.687 36.6912 18.687 36.2188V27.9062C18.687 27.4338 18.8712 26.9808 19.1989 26.6467C19.5267 26.3127 19.9713 26.125 20.4348 26.125ZM31.5044 18.4062C31.5044 17.9338 31.3202 17.4808 30.9924 17.1467C30.6647 16.8127 30.2201 16.625 29.7565 16.625C29.293 16.625 28.8484 16.8127 28.5206 17.1467C28.1929 17.4808 28.0087 17.9338 28.0087 18.4062V36.2188C28.0087 36.6912 28.1929 37.1442 28.5206 37.4783C28.8484 37.8123 29.293 38 29.7565 38C30.2201 38 30.6647 37.8123 30.9924 37.4783C31.3202 37.1442 31.5044 36.6912 31.5044 36.2188V18.4062Z" fill="white"/>
</svg>
