<svg width="70" height="70" viewBox="0 0 70 70" fill="none" xmlns="http://www.w3.org/2000/svg">
<path id="Vector" d="M3 67H66.9994M3 56.3333H66.9994M13.0384 3.00132C14.5138 4.30428 15.4443 6.21013 15.4443 8.33333C15.4443 12.2607 12.2606 15.4444 8.33328 15.4444C6.2101 15.4444 4.30427 14.514 3.00132 13.0385M13.0384 3.00132C13.4583 3 13.9039 3 14.3777 3H55.6217C56.0953 3 56.5412 3 56.9611 3.00132M13.0384 3.00132C9.928 3.01095 8.22288 3.0922 6.8827 3.77508C5.54465 4.45682 4.4568 5.54468 3.77507 6.88274C3.09219 8.22293 3.01095 9.92807 3.00132 13.0385M3.00132 13.0385C3 13.4585 3 13.904 3 14.3778V34.2889C3 34.7625 3 35.2084 3.00132 35.6283M56.9611 3.00132C55.4855 4.30428 54.555 6.21013 54.555 8.33333C54.555 12.2607 57.7387 15.4444 61.6661 15.4444C63.7891 15.4444 65.6952 14.514 66.9979 13.0385M56.9611 3.00132C60.0714 3.01095 61.7767 3.0922 63.1167 3.77508C64.4547 4.45682 65.5427 5.54468 66.2243 6.88274C66.9073 8.22293 66.9883 9.92807 66.9979 13.0385M3.00132 35.6283C4.30427 34.1527 6.2101 33.2222 8.33328 33.2222C12.2606 33.2222 15.4443 36.4059 15.4443 40.3333C15.4443 42.4564 14.5138 44.3625 13.0384 45.6652M3.00132 35.6283C3.01095 38.7387 3.09219 40.4436 3.77507 41.784C4.4568 43.122 5.54465 44.21 6.8827 44.8916C8.22288 45.5746 9.928 45.6556 13.0384 45.6652M13.0384 45.6652C13.4583 45.6667 13.9039 45.6667 14.3777 45.6667H55.6217C56.0953 45.6667 56.5412 45.6667 56.9611 45.6652M56.9611 45.6652C55.4855 44.3625 54.555 42.4564 54.555 40.3333C54.555 36.4059 57.7387 33.2222 61.6661 33.2222C63.7898 33.2222 65.6963 34.1534 66.9994 35.6297M56.9611 45.6652C60.0714 45.6556 61.7767 45.5746 63.1167 44.8916C64.4547 44.21 65.5427 43.122 66.2243 41.784C66.9069 40.4439 66.9898 38.739 66.9994 35.6297M66.9994 35.6297C67.0008 35.2094 66.9994 34.7632 66.9994 34.2889V14.3778C66.9994 13.904 66.9994 13.4585 66.9979 13.0385M42.1107 24.3333C42.1107 28.2608 38.9271 31.4444 34.9997 31.4444C31.0723 31.4444 27.8886 28.2608 27.8886 24.3333C27.8886 20.406 31.0723 17.2222 34.9997 17.2222C38.9271 17.2222 42.1107 20.406 42.1107 24.3333Z" stroke="white" stroke-width="5" stroke-linecap="round" stroke-linejoin="round"/>
</svg>
