<svg width="67" height="67" viewBox="0 0 67 67" fill="none" xmlns="http://www.w3.org/2000/svg">
<g id="Group 1261154021">
<path id="Vector" fill-rule="evenodd" clip-rule="evenodd" d="M29.7945 0.751582C32.0545 -0.250527 34.6127 -0.250527 36.8728 0.751582L63.0294 12.3498C69.0161 15.0044 67.1833 24.2426 60.6699 24.2426H5.99721C-0.516158 24.2426 -2.34884 15.0044 3.63782 12.3498L29.7945 0.751582ZM34.5133 6.44748C33.76 6.11345 32.9073 6.11345 32.1539 6.44748L7.3054 17.4654C7.00606 17.5981 7.10079 18.0454 7.42822 18.0454H59.239C59.5666 18.0454 59.6611 17.5981 59.3618 17.4654L34.5133 6.44748Z" fill="white"/>
<path id="Vector_2" d="M3.03125 63.6351C3.03125 61.9614 4.38799 60.6047 6.06158 60.6047H60.6075C62.2812 60.6047 63.6379 61.9614 63.6379 63.6351C63.6379 65.3087 62.2812 66.6654 60.6075 66.6654H6.06158C4.38799 66.6654 3.03125 65.3087 3.03125 63.6351Z" fill="white"/>
<path id="Vector_3" d="M30.3037 54.5448C30.3037 56.2185 31.6604 57.5752 33.334 57.5752C35.0077 57.5752 36.3644 56.2185 36.3644 54.5448V30.3022C36.3644 28.6285 35.0077 27.2719 33.334 27.2719C31.6604 27.2719 30.3037 28.6285 30.3037 30.3022V54.5448Z" fill="white"/>
<path id="Vector_4" d="M15.1524 57.5752C13.4788 57.5752 12.1221 56.2185 12.1221 54.5448V30.3022C12.1221 28.6285 13.4788 27.2719 15.1524 27.2719C16.826 27.2719 18.1827 28.6285 18.1827 30.3022V54.5448C18.1827 56.2185 16.826 57.5752 15.1524 57.5752Z" fill="white"/>
<path id="Vector_5" d="M48.4844 54.5448C48.4844 56.2185 49.8411 57.5752 51.5147 57.5752C53.1884 57.5752 54.545 56.2185 54.545 54.5448V30.3022C54.545 28.6285 53.1884 27.2719 51.5147 27.2719C49.8411 27.2719 48.4844 28.6285 48.4844 30.3022V54.5448Z" fill="white"/>
</g>
</svg>
