<svg width="74" height="68" viewBox="0 0 74 68" fill="none" xmlns="http://www.w3.org/2000/svg">
<g id="Group 1261154021">
<path id="Vector" d="M6.14815 56.7334C6.14815 54.1992 8.21095 52.1364 10.7452 52.1364H33.7322V46.0008H19.9653C17.4311 46.0008 15.3683 43.938 15.3683 41.4037C15.3683 38.8678 17.4311 36.805 19.9653 36.805H33.7691V30.6694H10.7335C8.19921 30.6694 6.13641 28.6066 6.13641 26.0724C6.13641 23.5381 8.19921 21.4753 10.7335 21.4753H53.7177C59.6376 21.4753 64.4553 16.6576 64.4553 10.7377C64.4553 4.81769 59.6376 0 53.7177 0H19.9704C14.0504 0 9.23271 4.81769 9.23271 10.7377C9.23271 12.407 9.64879 13.969 10.3316 15.38C4.60293 15.5964 0 20.2917 0 26.0724C0 31.8531 4.60125 36.5475 10.33 36.7647C9.64795 38.1749 9.23271 39.736 9.23271 41.4046C9.23271 43.0731 9.64795 44.6343 10.33 46.0436C4.60797 46.2676 0.0117443 50.9586 0.0117443 56.7351C0.0117443 62.6534 4.82607 67.4686 10.7452 67.4686H39.9139V61.333H10.7452C8.21095 61.3313 6.14815 59.2685 6.14815 56.7334ZM19.9704 6.13473H53.7177C56.2553 6.13473 58.3198 8.19921 58.3198 10.7368C58.3198 13.2744 56.2553 15.3389 53.7177 15.3389H19.9704C17.4328 15.3389 15.3683 13.2744 15.3683 10.7368C15.3683 8.19921 17.4328 6.13473 19.9704 6.13473Z" fill="white"/>
<path id="Vector_2" d="M55.2387 24.5349L36.832 33.7383V41.8133C36.832 51.9059 42.5339 61.1327 51.5611 65.6459L55.2387 67.4847L58.9164 65.6459C67.9436 61.1319 73.6463 51.9059 73.6463 41.8133V33.7383L55.2387 24.5349ZM67.5107 41.8133C67.5107 49.6325 63.1661 56.6615 56.1732 60.1588L55.2396 60.6252L54.3059 60.1588C47.3113 56.6615 42.9676 49.6325 42.9676 41.8133V37.5308L55.2396 31.3953L67.5115 37.5308V41.8133H67.5107Z" fill="white"/>
<path id="Vector_3" d="M50.041 43.1487L46.9941 46.5974L55.3695 54.0013L65.6575 42.1647L62.1854 39.1448L54.9408 47.479L50.041 43.1487Z" fill="white"/>
</g>
</svg>
