<svg width="63" height="67" viewBox="0 0 63 67" fill="none" xmlns="http://www.w3.org/2000/svg">
<path id="Vector" d="M46.4211 6.7C45.5416 6.7 44.6983 6.34705 44.0764 5.71881C43.4546 5.09056 43.1053 4.23848 43.1053 3.35C43.1053 2.46152 43.4546 1.60944 44.0764 0.981192C44.6983 0.352945 45.5416 0 46.4211 0H59.6842C60.5636 0 61.407 0.352945 62.0288 0.981192C62.6507 1.60944 63 2.46152 63 3.35V16.75C63 17.6385 62.6507 18.4906 62.0288 19.1188C61.407 19.7471 60.5636 20.1 59.6842 20.1C58.8048 20.1 57.9614 19.7471 57.3396 19.1188C56.7178 18.4906 56.3684 17.6385 56.3684 16.75V11.4369L37.1601 30.8434C36.5382 31.4715 35.695 31.8243 34.8158 31.8243C33.9366 31.8243 33.0933 31.4715 32.4715 30.8434L23.2105 21.4869L5.66005 39.2184C5.03469 39.8287 4.19711 40.1663 3.32772 40.1587C2.45833 40.1511 1.62669 39.7988 1.01192 39.1776C0.397143 38.5565 0.0484252 37.7163 0.0408704 36.8379C0.0333157 35.9596 0.367528 35.1134 0.971526 34.4815L20.8663 14.3816C21.4881 13.7535 22.3313 13.4007 23.2105 13.4007C24.0898 13.4007 24.933 13.7535 25.5548 14.3816L34.8158 23.7381L51.6799 6.7H46.4211ZM6.63158 53.6V63.65C6.63158 64.5385 6.28224 65.3906 5.66041 66.0188C5.03857 66.6471 4.19519 67 3.31579 67C2.43639 67 1.593 66.6471 0.971172 66.0188C0.349341 65.3906 0 64.5385 0 63.65V53.6C0 52.7115 0.349341 51.8594 0.971172 51.2312C1.593 50.6029 2.43639 50.25 3.31579 50.25C4.19519 50.25 5.03857 50.6029 5.66041 51.2312C6.28224 51.8594 6.63158 52.7115 6.63158 53.6ZM23.2105 40.2C23.2105 39.3115 22.8612 38.4594 22.2394 37.8312C21.6175 37.2029 20.7741 36.85 19.8947 36.85C19.0153 36.85 18.172 37.2029 17.5501 37.8312C16.9283 38.4594 16.5789 39.3115 16.5789 40.2V63.65C16.5789 64.5385 16.9283 65.3906 17.5501 66.0188C18.172 66.6471 19.0153 67 19.8947 67C20.7741 67 21.6175 66.6471 22.2394 66.0188C22.8612 65.3906 23.2105 64.5385 23.2105 63.65V40.2ZM36.4737 43.55C37.3531 43.55 38.1965 43.9029 38.8183 44.5312C39.4401 45.1594 39.7895 46.0115 39.7895 46.9V63.65C39.7895 64.5385 39.4401 65.3906 38.8183 66.0188C38.1965 66.6471 37.3531 67 36.4737 67C35.5943 67 34.7509 66.6471 34.1291 66.0188C33.5072 65.3906 33.1579 64.5385 33.1579 63.65V46.9C33.1579 46.0115 33.5072 45.1594 34.1291 44.5312C34.7509 43.9029 35.5943 43.55 36.4737 43.55ZM56.3684 30.15C56.3684 29.2615 56.0191 28.4094 55.3973 27.7812C54.7754 27.1529 53.932 26.8 53.0526 26.8C52.1732 26.8 51.3298 27.1529 50.708 27.7812C50.0862 28.4094 49.7368 29.2615 49.7368 30.15V63.65C49.7368 64.5385 50.0862 65.3906 50.708 66.0188C51.3298 66.6471 52.1732 67 53.0526 67C53.932 67 54.7754 66.6471 55.3973 66.0188C56.0191 65.3906 56.3684 64.5385 56.3684 63.65V30.15Z" fill="white"/>
</svg>
