<svg width="46" height="46" viewBox="0 0 46 46" fill="none" xmlns="http://www.w3.org/2000/svg">
<path id="Vector" d="M2 44H43.9996M2 37H43.9996M8.5877 2.00086C9.55596 2.85594 10.1666 4.10665 10.1666 5.5C10.1666 8.07733 8.07727 10.1667 5.49997 10.1667C4.10663 10.1667 2.85593 9.55603 2.00086 8.58777M8.5877 2.00086C8.86329 2 9.1557 2 9.46659 2H36.533C36.8438 2 37.1364 2 37.412 2.00086M8.5877 2.00086C6.5465 2.00719 5.42752 2.0605 4.54802 2.50864C3.66993 2.95604 2.95603 3.66994 2.50864 4.54805C2.0605 5.42755 2.00719 6.54655 2.00086 8.58777M2.00086 8.58777C2 8.86336 2 9.15577 2 9.46667V22.5333C2 22.8441 2 23.1367 2.00086 23.4123M37.412 2.00086C36.4436 2.85594 35.833 4.10665 35.833 5.5C35.833 8.07733 37.9222 10.1667 40.4996 10.1667C41.8928 10.1667 43.1437 9.55603 43.9987 8.58777M37.412 2.00086C39.4531 2.00719 40.5722 2.0605 41.4516 2.50864C42.3296 2.95604 43.0436 3.66994 43.4909 4.54805C43.9392 5.42755 43.9924 6.54655 43.9987 8.58777M2.00086 23.4123C2.85593 22.444 4.10663 21.8333 5.49997 21.8333C8.07727 21.8333 10.1666 23.9226 10.1666 26.5C10.1666 27.8932 9.55596 29.1441 8.5877 29.9991M2.00086 23.4123C2.00719 25.4535 2.0605 26.5723 2.50864 27.452C2.95603 28.33 3.66993 29.044 4.54802 29.4913C5.42752 29.9396 6.5465 29.9928 8.5877 29.9991M8.5877 29.9991C8.86329 30 9.1557 30 9.46659 30H36.533C36.8438 30 37.1364 30 37.412 29.9991M37.412 29.9991C36.4436 29.1441 35.833 27.8932 35.833 26.5C35.833 23.9226 37.9222 21.8333 40.4996 21.8333C41.8933 21.8333 43.1444 22.4444 43.9996 23.4132M37.412 29.9991C39.4531 29.9928 40.5722 29.9396 41.4516 29.4913C42.3296 29.044 43.0436 28.33 43.4909 27.452C43.9389 26.5726 43.9933 25.4537 43.9996 23.4132M43.9996 23.4132C44.0005 23.1374 43.9996 22.8446 43.9996 22.5333V9.46667C43.9996 9.15577 43.9996 8.86336 43.9987 8.58777M27.6664 16C27.6664 18.5774 25.5772 20.6667 22.9998 20.6667C20.4224 20.6667 18.3332 18.5774 18.3332 16C18.3332 13.4227 20.4224 11.3333 22.9998 11.3333C25.5772 11.3333 27.6664 13.4227 27.6664 16Z" stroke="white" stroke-width="2.5" stroke-linecap="round" stroke-linejoin="round"/>
</svg>
