<svg width="34" height="45" viewBox="0 0 34 45" fill="none" xmlns="http://www.w3.org/2000/svg">
<path id="Vector" d="M3 0C1.34315 0 0 1.34315 0 3V42C0 43.6569 1.34315 45 3 45H31C32.6569 45 34 43.6569 34 42V3C34 1.34315 32.6569 0 31 0H3ZM30.9091 38.7857C30.9091 40.4426 29.5659 41.7857 27.9091 41.7857H6.09091C4.43406 41.7857 3.09091 40.4426 3.09091 38.7857V6.21429C3.09091 4.55743 4.43405 3.21429 6.09091 3.21429H27.9091C29.5659 3.21429 30.9091 4.55743 30.9091 6.21429V38.7857ZM15.4545 9.42857C15.4545 7.77172 14.1114 6.42857 12.4545 6.42857H9.18182C7.52496 6.42857 6.18182 7.77172 6.18182 9.42857V13.0714C6.18182 14.7283 7.52496 16.0714 9.18182 16.0714H12.4545C14.1114 16.0714 15.4545 14.7283 15.4545 13.0714V9.42857ZM12.3636 11.3117C12.3636 12.1652 11.6717 12.8571 10.8182 12.8571C9.96465 12.8571 9.27273 12.1652 9.27273 11.3117V11.1883C9.27273 10.3348 9.96465 9.64286 10.8182 9.64286C11.6717 9.64286 12.3636 10.3348 12.3636 11.1883V11.3117ZM27.8182 11.25C27.8182 12.1376 27.0986 12.8571 26.211 12.8571H18.6071C17.7195 12.8571 17 12.1376 17 11.25C17 10.3624 17.7195 9.64286 18.6071 9.64286H26.211C27.0986 9.64286 27.8182 10.3624 27.8182 11.25ZM15.4545 20.6786C15.4545 19.0217 14.1114 17.6786 12.4545 17.6786H9.18182C7.52496 17.6786 6.18182 19.0217 6.18182 20.6786V24.3214C6.18182 25.9783 7.52496 27.3214 9.18182 27.3214H12.4545C14.1114 27.3214 15.4545 25.9783 15.4545 24.3214V20.6786ZM12.3636 22.5617C12.3636 23.4152 11.6717 24.1071 10.8182 24.1071C9.96465 24.1071 9.27273 23.4152 9.27273 22.5617V22.4383C9.27273 21.5848 9.96465 20.8929 10.8182 20.8929C11.6717 20.8929 12.3636 21.5848 12.3636 22.4383V22.5617ZM27.8182 22.5C27.8182 23.3876 27.0986 24.1071 26.211 24.1071H18.6071C17.7195 24.1071 17 23.3876 17 22.5C17 21.6124 17.7195 20.8929 18.6071 20.8929H26.211C27.0986 20.8929 27.8182 21.6124 27.8182 22.5ZM15.4545 31.9286C15.4545 30.2717 14.1114 28.9286 12.4545 28.9286H9.18182C7.52496 28.9286 6.18182 30.2717 6.18182 31.9286V35.5714C6.18182 37.2283 7.52496 38.5714 9.18182 38.5714H12.4545C14.1114 38.5714 15.4545 37.2283 15.4545 35.5714V31.9286ZM12.3636 33.8117C12.3636 34.6652 11.6717 35.3571 10.8182 35.3571C9.96465 35.3571 9.27273 34.6652 9.27273 33.8117V33.6883C9.27273 32.8348 9.96465 32.1429 10.8182 32.1429C11.6717 32.1429 12.3636 32.8348 12.3636 33.6883V33.8117ZM27.8182 33.75C27.8182 34.6376 27.0986 35.3571 26.211 35.3571H18.6071C17.7195 35.3571 17 34.6376 17 33.75C17 32.8624 17.7195 32.1429 18.6071 32.1429H26.211C27.0986 32.1429 27.8182 32.8624 27.8182 33.75Z" fill="white"/>
</svg>
