<svg width="47" height="46" viewBox="0 0 47 46" fill="none" xmlns="http://www.w3.org/2000/svg">
<g id="Group 1261154098">
<path id="Vector" d="M2 22.4614C2 14.3388 2 10.2775 4.52337 7.75408C7.04676 5.23071 11.108 5.23071 19.2307 5.23071H27.846C35.9686 5.23071 40.03 5.23071 42.5533 7.75408C45.0767 10.2775 45.0767 14.3388 45.0767 22.4614V26.7691C45.0767 34.8916 45.0767 38.9531 42.5533 41.4763C40.03 43.9997 35.9686 43.9997 27.846 43.9997H19.2307C11.108 43.9997 7.04676 43.9997 4.52337 41.4763C2 38.9531 2 34.8916 2 26.7691V22.4614Z" stroke="white" stroke-width="3"/>
<path id="Vector_2" d="M12.7695 5.23075V2" stroke="white" stroke-width="3" stroke-linecap="round"/>
<path id="Vector_3" d="M34.3076 5.23075V2" stroke="white" stroke-width="3" stroke-linecap="round"/>
<path id="Vector_4" d="M3.07715 16H44" stroke="white" stroke-width="3" stroke-linecap="round"/>
<path id="Vector_5" d="M36.461 33.2305C36.461 34.4201 35.4967 35.3843 34.3072 35.3843C33.1176 35.3843 32.1533 34.4201 32.1533 33.2305C32.1533 32.0409 33.1176 31.0767 34.3072 31.0767C35.4967 31.0767 36.461 32.0409 36.461 33.2305Z" fill="white"/>
<path id="Vector_6" d="M36.461 24.6153C36.461 25.8048 35.4967 26.7691 34.3072 26.7691C33.1176 26.7691 32.1533 25.8048 32.1533 24.6153C32.1533 23.4257 33.1176 22.4614 34.3072 22.4614C35.4967 22.4614 36.461 23.4257 36.461 24.6153Z" fill="white"/>
<path id="Vector_7" d="M25.6924 33.2305C25.6924 34.4201 24.7282 35.3843 23.5386 35.3843C22.349 35.3843 21.3848 34.4201 21.3848 33.2305C21.3848 32.0409 22.349 31.0767 23.5386 31.0767C24.7282 31.0767 25.6924 32.0409 25.6924 33.2305Z" fill="white"/>
<path id="Vector_8" d="M25.6924 24.6153C25.6924 25.8048 24.7282 26.7691 23.5386 26.7691C22.349 26.7691 21.3848 25.8048 21.3848 24.6153C21.3848 23.4257 22.349 22.4614 23.5386 22.4614C24.7282 22.4614 25.6924 23.4257 25.6924 24.6153Z" fill="white"/>
<path id="Vector_9" d="M14.9229 33.2305C14.9229 34.4201 13.9586 35.3843 12.7691 35.3843C11.5795 35.3843 10.6152 34.4201 10.6152 33.2305C10.6152 32.0409 11.5795 31.0767 12.7691 31.0767C13.9586 31.0767 14.9229 32.0409 14.9229 33.2305Z" fill="white"/>
<path id="Vector_10" d="M14.9229 24.6153C14.9229 25.8048 13.9586 26.7691 12.7691 26.7691C11.5795 26.7691 10.6152 25.8048 10.6152 24.6153C10.6152 23.4257 11.5795 22.4614 12.7691 22.4614C13.9586 22.4614 14.9229 23.4257 14.9229 24.6153Z" fill="white"/>
</g>
</svg>
