<svg width="42" height="46" viewBox="0 0 42 46" fill="none" xmlns="http://www.w3.org/2000/svg">
<path d="M2.35938 18.5561C2.35938 10.5724 2.35937 6.58056 4.83959 4.10033C7.31982 1.62012 11.3117 1.62012 19.2954 1.62012H23.5294C31.513 1.62012 35.505 1.62012 37.9851 4.10033C40.4653 6.58056 40.4653 10.5724 40.4653 18.5561V27.0241C40.4653 35.0077 40.4653 38.9997 37.9851 41.4798C35.505 43.9601 31.513 43.9601 23.5294 43.9601H19.2954C11.3117 43.9601 7.31982 43.9601 4.83959 41.4798C2.35937 38.9997 2.35938 35.0077 2.35938 27.0241V18.5561Z" stroke="white" stroke-width="3"/>
<path d="M12.9443 22.79H29.8803" stroke="white" stroke-width="3" stroke-linecap="round"/>
<path d="M12.9443 14.3223H29.8803" stroke="white" stroke-width="3" stroke-linecap="round"/>
<path d="M12.9443 31.2583H23.5293" stroke="white" stroke-width="3" stroke-linecap="round"/>
</svg>
