<svg width="33" height="33" viewBox="0 0 33 33" fill="none" xmlns="http://www.w3.org/2000/svg">
<g id="Group 1261154054">
<path id="Vector" fill-rule="evenodd" clip-rule="evenodd" d="M14.5992 0.368272C15.7066 -0.122757 16.9601 -0.122757 18.0675 0.368272L30.8842 6.05136C33.8176 7.3521 32.9196 11.8788 29.7281 11.8788H2.93861C-0.252915 11.8788 -1.15092 7.35209 1.78252 6.05136L14.5992 0.368272ZM16.9114 3.15924C16.5423 2.99557 16.1244 2.99557 15.7553 3.15924L3.57962 8.55797C3.43295 8.623 3.47936 8.8422 3.6398 8.8422H29.0269C29.1874 8.8422 29.2337 8.623 29.087 8.55797L16.9114 3.15924Z" fill="white"/>
<path id="Vector_2" d="M1.48535 31.1814C1.48535 30.3613 2.15015 29.6965 2.9702 29.6965H29.6975C30.5176 29.6965 31.1824 30.3613 31.1824 31.1814C31.1824 32.0015 30.5176 32.6662 29.6975 32.6662H2.9702C2.15015 32.6662 1.48535 32.0015 1.48535 31.1814Z" fill="white"/>
<path id="Vector_3" d="M14.8486 26.7272C14.8486 27.5473 15.5134 28.212 16.3335 28.212C17.1536 28.212 17.8183 27.5473 17.8183 26.7272V14.8484C17.8183 14.0283 17.1536 13.3635 16.3335 13.3635C15.5134 13.3635 14.8486 14.0283 14.8486 14.8484V26.7272Z" fill="white"/>
<path id="Vector_4" d="M7.4243 28.212C6.60425 28.212 5.93945 27.5473 5.93945 26.7272V14.8484C5.93945 14.0283 6.60424 13.3635 7.4243 13.3635C8.24436 13.3635 8.90916 14.0283 8.90916 14.8484V26.7272C8.90916 27.5473 8.24437 28.212 7.4243 28.212Z" fill="white"/>
<path id="Vector_5" d="M23.7578 26.7272C23.7578 27.5473 24.4226 28.212 25.2427 28.212C26.0627 28.212 26.7275 27.5473 26.7275 26.7272V14.8484C26.7275 14.0283 26.0627 13.3635 25.2427 13.3635C24.4226 13.3635 23.7578 14.0283 23.7578 14.8484V26.7272Z" fill="white"/>
</g>
</svg>
