<svg width="31" height="32" viewBox="0 0 31 32" fill="none" xmlns="http://www.w3.org/2000/svg">
<path id="Vector" d="M22.8421 3.2C22.4094 3.2 21.9944 3.03143 21.6884 2.73137C21.3824 2.43131 21.2105 2.02435 21.2105 1.6C21.2105 1.17565 21.3824 0.768687 21.6884 0.468629C21.9944 0.168571 22.4094 0 22.8421 0H29.3684C29.8011 0 30.2161 0.168571 30.5221 0.468629C30.8281 0.768687 31 1.17565 31 1.6V8C31 8.42435 30.8281 8.83131 30.5221 9.13137C30.2161 9.43143 29.8011 9.6 29.3684 9.6C28.9357 9.6 28.5207 9.43143 28.2147 9.13137C27.9087 8.83131 27.7368 8.42435 27.7368 8V5.4624L18.2851 14.7312C17.9791 15.0312 17.5642 15.1997 17.1316 15.1997C16.6989 15.1997 16.284 15.0312 15.9781 14.7312L11.4211 10.2624L2.7851 18.7312C2.47739 19.0227 2.06525 19.1839 1.63745 19.1803C1.20966 19.1766 0.800436 19.0084 0.497928 18.7117C0.19542 18.4151 0.0238283 18.0138 0.0201108 17.5942C0.0163934 17.1747 0.180847 16.7706 0.478053 16.4688L10.2675 6.8688C10.5735 6.56885 10.9884 6.40034 11.4211 6.40034C11.8537 6.40034 12.2686 6.56885 12.5746 6.8688L17.1316 11.3376L25.4298 3.2H22.8421ZM3.26316 25.6V30.4C3.26316 30.8243 3.09126 31.2313 2.78528 31.5314C2.4793 31.8314 2.0643 32 1.63158 32C1.19886 32 0.783859 31.8314 0.477878 31.5314C0.171898 31.2313 0 30.8243 0 30.4V25.6C0 25.1757 0.171898 24.7687 0.477878 24.4686C0.783859 24.1686 1.19886 24 1.63158 24C2.0643 24 2.4793 24.1686 2.78528 24.4686C3.09126 24.7687 3.26316 25.1757 3.26316 25.6ZM11.4211 19.2C11.4211 18.7757 11.2492 18.3687 10.9432 18.0686C10.6372 17.7686 10.2222 17.6 9.78947 17.6C9.35675 17.6 8.94175 17.7686 8.63577 18.0686C8.32979 18.3687 8.15789 18.7757 8.15789 19.2V30.4C8.15789 30.8243 8.32979 31.2313 8.63577 31.5314C8.94175 31.8314 9.35675 32 9.78947 32C10.2222 32 10.6372 31.8314 10.9432 31.5314C11.2492 31.2313 11.4211 30.8243 11.4211 30.4V19.2ZM17.9474 20.8C18.3801 20.8 18.7951 20.9686 19.1011 21.2686C19.407 21.5687 19.5789 21.9757 19.5789 22.4V30.4C19.5789 30.8243 19.407 31.2313 19.1011 31.5314C18.7951 31.8314 18.3801 32 17.9474 32C17.5146 32 17.0996 31.8314 16.7937 31.5314C16.4877 31.2313 16.3158 30.8243 16.3158 30.4V22.4C16.3158 21.9757 16.4877 21.5687 16.7937 21.2686C17.0996 20.9686 17.5146 20.8 17.9474 20.8ZM27.7368 14.4C27.7368 13.9757 27.5649 13.5687 27.259 13.2686C26.953 12.9686 26.538 12.8 26.1053 12.8C25.6725 12.8 25.2575 12.9686 24.9516 13.2686C24.6456 13.5687 24.4737 13.9757 24.4737 14.4V30.4C24.4737 30.8243 24.6456 31.2313 24.9516 31.5314C25.2575 31.8314 25.6725 32 26.1053 32C26.538 32 26.953 31.8314 27.259 31.5314C27.5649 31.2313 27.7368 30.8243 27.7368 30.4V14.4Z" fill="white"/>
</svg>
