<svg width="32" height="36" viewBox="0 0 32 36" fill="none" xmlns="http://www.w3.org/2000/svg">
<path d="M2 14.6667C2 8.69553 2 5.70998 3.85498 3.85498C5.70998 2 8.69553 2 14.6667 2H17.8333C23.8044 2 26.7901 2 28.6449 3.85498C30.5 5.70998 30.5 8.69553 30.5 14.6667V21C30.5 26.971 30.5 29.9567 28.6449 31.8116C26.7901 33.6666 23.8044 33.6666 17.8333 33.6666H14.6667C8.69553 33.6666 5.70998 33.6666 3.85498 31.8116C2 29.9567 2 26.971 2 21V14.6667Z" stroke="white" stroke-width="3"/>
<path d="M9.91699 17.8331H22.5836" stroke="white" stroke-width="3" stroke-linecap="round"/>
<path d="M9.91699 11.5001H22.5836" stroke="white" stroke-width="3" stroke-linecap="round"/>
<path d="M9.91699 24.1667H17.8336" stroke="white" stroke-width="3" stroke-linecap="round"/>
</svg>
