<svg width="36" height="36" viewBox="0 0 36 36" fill="none" xmlns="http://www.w3.org/2000/svg">
<g id="Group 1261154060">
<path id="Vector" d="M27.9267 10.3625C27.8295 10.3463 27.716 10.3463 27.6188 10.3625C25.3823 10.2814 23.5996 8.45011 23.5996 6.18123C23.5996 3.86373 25.4633 2 27.7808 2C30.0983 2 31.9621 3.87993 31.9621 6.18123C31.9459 8.45011 30.1632 10.2814 27.9267 10.3625Z" stroke="white" stroke-width="3" stroke-linecap="round" stroke-linejoin="round"/>
<path id="Vector_2" d="M26.2566 22.1607C28.4769 22.5334 30.924 22.1445 32.6419 20.9938C34.927 19.4704 34.927 16.9746 32.6419 15.4513C30.9078 14.3007 28.4283 13.9117 26.208 14.3007" stroke="white" stroke-width="3" stroke-linecap="round" stroke-linejoin="round"/>
<path id="Vector_3" d="M8.4299 10.3625C8.52714 10.3463 8.64059 10.3463 8.73782 10.3625C10.9743 10.2814 12.757 8.45011 12.757 6.18123C12.757 3.86373 10.8933 2 8.57576 2C6.25826 2 4.39453 3.87993 4.39453 6.18123C4.41074 8.45011 6.19343 10.2814 8.4299 10.3625Z" stroke="white" stroke-width="3" stroke-linecap="round" stroke-linejoin="round"/>
<path id="Vector_4" d="M10.0991 22.1607C7.87884 22.5334 5.43169 22.1445 3.71382 20.9938C1.42873 19.4704 1.42873 16.9746 3.71382 15.4513C5.44789 14.3007 7.92746 13.9117 10.1477 14.3007" stroke="white" stroke-width="3" stroke-linecap="round" stroke-linejoin="round"/>
<path id="Vector_5" d="M18.2022 22.4686C18.1049 22.4524 17.9915 22.4524 17.8942 22.4686C15.6578 22.3876 13.875 20.5562 13.875 18.2874C13.875 15.9699 15.7388 14.1061 18.0563 14.1061C20.3738 14.1061 22.2375 15.9861 22.2375 18.2874C22.2213 20.5562 20.4386 22.4038 18.2022 22.4686Z" stroke="white" stroke-width="3" stroke-linecap="round" stroke-linejoin="round"/>
<path id="Vector_6" d="M13.4863 27.5736C11.2012 29.097 11.2012 31.5927 13.4863 33.1161C16.0793 34.8502 20.3254 34.8502 22.9184 33.1161C25.2035 31.5927 25.2035 29.097 22.9184 27.5736C20.3416 25.8557 16.0793 25.8557 13.4863 27.5736Z" stroke="white" stroke-width="3" stroke-linecap="round" stroke-linejoin="round"/>
</g>
</svg>
