<svg width="48" height="53" viewBox="0 0 48 53" fill="none" xmlns="http://www.w3.org/2000/svg">
<g id="Group 1261153995">
<path id="Vector" d="M2 21.4667C2 12.29 2 7.70166 4.85082 4.85082C7.70166 2 12.29 2 21.4667 2H26.3333C35.5099 2 40.0984 2 42.9491 4.85082C45.8 7.70166 45.8 12.29 45.8 21.4667V31.2C45.8 40.3766 45.8 44.9651 42.9491 47.8157C40.0984 50.6666 35.5099 50.6666 26.3333 50.6666H21.4667C12.29 50.6666 7.70166 50.6666 4.85082 47.8157C2 44.9651 2 40.3766 2 31.2V21.4667Z" stroke="white" stroke-width="3"/>
<path id="Vector_2" d="M14.167 26.333H33.6336" stroke="white" stroke-width="3" stroke-linecap="round"/>
<path id="Vector_3" d="M14.167 16.6001H33.6336" stroke="white" stroke-width="3" stroke-linecap="round"/>
<path id="Vector_4" d="M14.167 36.0667H26.3336" stroke="white" stroke-width="3" stroke-linecap="round"/>
</g>
</svg>
