<svg width="47" height="49" viewBox="0 0 47 49" fill="none" xmlns="http://www.w3.org/2000/svg">
<path id="Vector" fill-rule="evenodd" clip-rule="evenodd" d="M19.9317 1.03288e-06H24.7756C28.9891 -4.45485e-05 32.3264 -6.74801e-05 34.9382 0.349018C37.6261 0.708245 39.8019 1.46517 41.5177 3.17073C42.189 3.83827 42.189 4.92054 41.5177 5.58805C40.8462 6.25559 39.7574 6.25559 39.0859 5.58805C38.1156 4.62353 36.7866 4.0454 34.4801 3.73713C32.1239 3.42223 29.018 3.41861 24.6463 3.41861H20.061C15.6892 3.41861 12.5834 3.42223 10.2273 3.73713C7.92067 4.0454 6.59172 4.62353 5.62143 5.58805C4.65114 6.55258 4.06956 7.87364 3.75945 10.1666C3.44267 12.5087 3.43903 15.5961 3.43903 19.9419V29.0581C3.43903 33.4039 3.44267 36.4913 3.75945 38.8335C4.06956 41.1263 4.65114 42.4474 5.62143 43.4119C6.59172 44.3764 7.92067 44.9547 10.2273 45.2628C12.5834 45.5777 15.6892 45.5814 20.061 45.5814H24.6463C29.018 45.5814 32.1239 45.5777 34.4801 45.2628C36.7866 44.9547 38.1156 44.3764 39.0859 43.4119C40.6814 41.8259 41.1647 39.3614 41.2486 33.5917C41.2623 32.6477 42.0432 31.8935 42.9928 31.9072C43.9422 31.9209 44.7009 32.6971 44.6871 33.6409C44.6067 39.1733 44.2465 43.1166 41.5177 45.8294C39.8019 47.5348 37.6261 48.2917 34.9382 48.6511C32.3264 49 28.9891 49 24.7756 49H19.9317C15.7182 49 12.3809 49 9.76908 48.6511C7.08109 48.2917 4.90545 47.5348 3.18967 45.8294C1.47392 44.1237 0.712475 41.9609 0.351103 39.2889C-6.76098e-05 36.6926 -4.48147e-05 33.3752 1.03894e-06 29.1867V19.8133C-4.48147e-05 15.6249 -6.76098e-05 12.3074 0.351103 9.71107C0.712475 7.03904 1.47392 4.87632 3.18967 3.17073C4.90545 1.46517 7.08109 0.708245 9.76908 0.349018C12.3809 -6.74801e-05 15.7182 -4.45485e-05 19.9317 1.03288e-06ZM36.3691 13.2085C38.8011 10.791 42.7441 10.791 45.1759 13.2085C47.608 15.626 47.608 19.5456 45.1759 21.9632L34.2735 32.8008C33.6804 33.3907 33.2792 33.7895 32.8296 34.138C32.3009 34.548 31.7289 34.8994 31.1236 35.1863C30.6089 35.43 30.0706 35.6084 29.2746 35.8719L24.4975 37.4549C23.4429 37.8043 22.2801 37.5315 21.4939 36.75C20.7077 35.9685 20.4333 34.8126 20.7848 33.7642L22.3452 29.111C22.3559 29.0789 22.3665 29.047 22.377 29.0155C22.6423 28.2245 22.8218 27.6891 23.0669 27.1775C23.3556 26.5758 23.7091 26.0071 24.1215 25.4816C24.4721 25.0347 24.8733 24.6358 25.4667 24.0462C25.4903 24.0228 25.5141 23.9991 25.5384 23.9749L36.3691 13.2085ZM42.7443 15.6258C41.6553 14.5433 39.8899 14.5433 38.8009 15.6258L38.3841 16.0401C38.4068 16.1164 38.4327 16.1976 38.4625 16.2829C38.678 16.9008 39.0875 17.7181 39.8633 18.4895C40.6394 19.261 41.4616 19.6678 42.0833 19.8822C42.1691 19.9118 42.2507 19.9376 42.3275 19.9601L42.7443 19.5458C43.8331 18.4633 43.8331 16.7083 42.7443 15.6258ZM39.701 22.571C38.9722 22.1904 38.1853 21.6559 37.4317 20.9068C36.6781 20.1577 36.1405 19.3754 35.7576 18.6509L27.97 26.3923C27.2799 27.0785 27.0376 27.3233 26.8331 27.584C26.5745 27.9138 26.3526 28.2707 26.1714 28.6484C26.0284 28.9467 25.9163 29.2715 25.6077 30.1922L24.6899 32.9291L25.3376 33.573L28.0909 32.6607C29.0171 32.3539 29.3438 32.2425 29.6439 32.1002C30.0238 31.9202 30.3829 31.6996 30.7146 31.4425C30.9769 31.2392 31.2231 30.9983 31.9135 30.3123L39.701 22.571ZM11.4634 17.6628C11.4634 16.7188 12.2333 15.9535 13.1829 15.9535H28.0854C29.035 15.9535 29.8049 16.7188 29.8049 17.6628C29.8049 18.6068 29.035 19.3721 28.0854 19.3721H13.1829C12.2333 19.3721 11.4634 18.6068 11.4634 17.6628ZM11.4634 26.7791C11.4634 25.8351 12.2333 25.0698 13.1829 25.0698H18.9146C19.8643 25.0698 20.6341 25.8351 20.6341 26.7791C20.6341 27.7231 19.8643 28.4884 18.9146 28.4884H13.1829C12.2333 28.4884 11.4634 27.7231 11.4634 26.7791ZM11.4634 35.8953C11.4634 34.9514 12.2333 34.186 13.1829 34.186H16.622C17.5716 34.186 18.3415 34.9514 18.3415 35.8953C18.3415 36.8393 17.5716 37.6046 16.622 37.6046H13.1829C12.2333 37.6046 11.4634 36.8393 11.4634 35.8953Z" fill="white"/>
</svg>
