<svg width="53" height="53" viewBox="0 0 53 53" fill="none" xmlns="http://www.w3.org/2000/svg">
<path id="Vector" d="M2 51H50.9995M2 42.8333H50.9995M9.68566 2.00101C10.8153 2.99859 11.5277 4.45776 11.5277 6.08333C11.5277 9.09022 9.09015 11.5278 6.08329 11.5278C4.45773 11.5278 2.99858 10.8154 2.00101 9.68573M9.68566 2.00101C10.0072 2 10.3483 2 10.711 2H42.2885C42.6511 2 42.9925 2 43.3139 2.00101M9.68566 2.00101C7.30425 2.00838 5.99877 2.07059 4.97269 2.59342C3.94825 3.11538 3.11536 3.94827 2.59341 4.97272C2.07059 5.99881 2.00838 7.3043 2.00101 9.68573M2.00101 9.68573C2 10.0073 2 10.3484 2 10.7111V25.9556C2 26.3182 2 26.6595 2.00101 26.981M43.3139 2.00101C42.1842 2.99859 41.4718 4.45776 41.4718 6.08333C41.4718 9.09022 43.9093 11.5278 46.9162 11.5278C48.5416 11.5278 50.001 10.8154 50.9984 9.68573M43.3139 2.00101C45.6953 2.00838 47.0009 2.07059 48.0269 2.59342C49.0512 3.11538 49.8842 3.94827 50.4061 4.97272C50.929 5.99881 50.9911 7.3043 50.9984 9.68573M2.00101 26.981C2.99858 25.8513 4.45773 25.1389 6.08329 25.1389C9.09015 25.1389 11.5277 27.5764 11.5277 30.5833C11.5277 32.2088 10.8153 33.6682 9.68566 34.6656M2.00101 26.981C2.00838 29.3624 2.07059 30.6677 2.59341 31.694C3.11536 32.7184 3.94825 33.5514 4.97269 34.0732C5.99877 34.5962 7.30425 34.6582 9.68566 34.6656M9.68566 34.6656C10.0072 34.6667 10.3483 34.6667 10.711 34.6667H42.2885C42.6511 34.6667 42.9925 34.6667 43.3139 34.6656M43.3139 34.6656C42.1842 33.6682 41.4718 32.2088 41.4718 30.5833C41.4718 27.5764 43.9093 25.1389 46.9162 25.1389C48.5422 25.1389 50.0018 25.8518 50.9995 26.9821M43.3139 34.6656C45.6953 34.6582 47.0009 34.5962 48.0269 34.0732C49.0512 33.5514 49.8842 32.7184 50.4061 31.694C50.9287 30.668 50.9922 29.3627 50.9995 26.9821M50.9995 26.9821C51.0006 26.6603 50.9995 26.3187 50.9995 25.9556V10.7111C50.9995 10.3484 50.9995 10.0073 50.9984 9.68573M31.9441 18.3333C31.9441 21.3403 29.5067 23.7778 26.4998 23.7778C23.4928 23.7778 21.0554 21.3403 21.0554 18.3333C21.0554 15.3264 23.4928 12.8889 26.4998 12.8889C29.5067 12.8889 31.9441 15.3264 31.9441 18.3333Z" stroke="white" stroke-width="2.5" stroke-linecap="round" stroke-linejoin="round"/>
</svg>
