<svg width="40" height="54" viewBox="0 0 40 54" fill="none" xmlns="http://www.w3.org/2000/svg">
<path id="Vector" d="M3 0C1.34315 0 0 1.34315 0 3V51C0 52.6569 1.34315 54 3 54H37C38.6569 54 40 52.6569 40 51V3C40 1.34315 38.6569 0 37 0H3ZM36.3636 47.1429C36.3636 48.7997 35.0205 50.1429 33.3636 50.1429H6.63636C4.97951 50.1429 3.63636 48.7997 3.63636 47.1429V6.85714C3.63636 5.20029 4.97951 3.85714 6.63636 3.85714H33.3636C35.0205 3.85714 36.3636 5.20029 36.3636 6.85714V47.1429ZM18.1818 10.7143C18.1818 9.05743 16.8387 7.71429 15.1818 7.71429H10.2727C8.61587 7.71429 7.27273 9.05743 7.27273 10.7143V16.2857C7.27273 17.9426 8.61587 19.2857 10.2727 19.2857H15.1818C16.8387 19.2857 18.1818 17.9426 18.1818 16.2857V10.7143ZM14.5455 13.6104C14.5455 14.6145 13.7314 15.4286 12.7273 15.4286C11.7231 15.4286 10.9091 14.6145 10.9091 13.6104V13.3896C10.9091 12.3855 11.7231 11.5714 12.7273 11.5714C13.7314 11.5714 14.5455 12.3855 14.5455 13.3896V13.6104ZM32.7273 13.5C32.7273 14.5651 31.8638 15.4286 30.7987 15.4286H21.9286C20.8635 15.4286 20 14.5651 20 13.5C20 12.4349 20.8635 11.5714 21.9286 11.5714H30.7987C31.8638 11.5714 32.7273 12.4349 32.7273 13.5ZM18.1818 24.2143C18.1818 22.5574 16.8387 21.2143 15.1818 21.2143H10.2727C8.61587 21.2143 7.27273 22.5574 7.27273 24.2143V29.7857C7.27273 31.4426 8.61587 32.7857 10.2727 32.7857H15.1818C16.8387 32.7857 18.1818 31.4426 18.1818 29.7857V24.2143ZM14.5455 27.1104C14.5455 28.1145 13.7314 28.9286 12.7273 28.9286C11.7231 28.9286 10.9091 28.1145 10.9091 27.1104V26.8896C10.9091 25.8855 11.7231 25.0714 12.7273 25.0714C13.7314 25.0714 14.5455 25.8855 14.5455 26.8896V27.1104ZM32.7273 27C32.7273 28.0651 31.8638 28.9286 30.7987 28.9286H21.9286C20.8635 28.9286 20 28.0651 20 27C20 25.9349 20.8635 25.0714 21.9286 25.0714H30.7987C31.8638 25.0714 32.7273 25.9349 32.7273 27ZM18.1818 37.7143C18.1818 36.0574 16.8387 34.7143 15.1818 34.7143H10.2727C8.61587 34.7143 7.27273 36.0574 7.27273 37.7143V43.2857C7.27273 44.9426 8.61587 46.2857 10.2727 46.2857H15.1818C16.8387 46.2857 18.1818 44.9426 18.1818 43.2857V37.7143ZM14.5455 40.6104C14.5455 41.6145 13.7314 42.4286 12.7273 42.4286C11.7231 42.4286 10.9091 41.6145 10.9091 40.6104V40.3896C10.9091 39.3855 11.7231 38.5714 12.7273 38.5714C13.7314 38.5714 14.5455 39.3855 14.5455 40.3896V40.6104ZM32.7273 40.5C32.7273 41.5651 31.8638 42.4286 30.7987 42.4286H21.9286C20.8635 42.4286 20 41.5651 20 40.5C20 39.4349 20.8635 38.5714 21.9286 38.5714H30.7987C31.8638 38.5714 32.7273 39.4349 32.7273 40.5Z" fill="white"/>
</svg>
