<svg width="50" height="50" viewBox="0 0 50 50" fill="none" xmlns="http://www.w3.org/2000/svg">
<g id="&#240;&#159;&#148;&#141;-Product-Icons">
<g id="ic_fluent_signature_28_regular">
<path id="&#240;&#159;&#142;&#168;-Color" d="M29.7256 39.0752L30.2801 39.0712C32.785 39.0712 34.1008 40.1095 35.7242 42.5695L36.5326 43.8182C37.1628 44.7512 37.5561 45.142 38.0515 45.3462C38.9398 45.7123 39.676 45.5323 42.3795 44.2306L43.2073 43.8276C44.8981 42.9975 46.0518 42.5223 47.3555 42.1964C48.1804 41.9901 49.0163 42.4917 49.2226 43.3166C49.4288 44.1415 48.9272 44.9774 48.1023 45.1837C47.292 45.3862 46.5156 45.6769 45.4999 46.145L43.1214 47.2891C39.9029 48.8091 38.8113 48.9898 36.8782 48.1931C35.595 47.6643 34.8654 46.8992 33.7977 45.2666L33.3981 44.6427C32.2448 42.8255 31.6263 42.2293 30.524 42.1579L30.2801 42.1504C29.1546 42.1504 28.932 42.2909 24.6539 45.4657C21.0774 48.1199 18.3498 49.3876 14.8812 49.3876C10.6526 49.3876 6.66814 48.6107 2.93968 47.0577L8.85652 45.6898C10.7942 46.1022 12.8018 46.3084 14.8812 46.3084C17.5307 46.3084 19.7269 45.2877 22.8189 42.993L25.2003 41.236C27.8101 39.3391 28.3907 39.1041 29.7256 39.0752ZM42.6525 2.57659C46.0882 6.01222 46.0882 11.5824 42.6527 15.0181L40.527 17.144C42.8917 20.0211 42.8066 23.0704 40.6079 25.2754L34.4474 31.436C33.8459 32.0369 32.871 32.0365 32.2701 31.4349C31.6691 30.8334 31.6696 29.8585 32.2711 29.2576L38.4274 23.1013C39.4232 22.1026 39.5382 20.8628 38.3454 19.3271L16.5972 41.0749C15.9851 41.6871 15.2132 42.1149 14.3697 42.3096L1.88697 45.1902C0.778347 45.446 -0.215236 44.4524 0.0406009 43.3438L2.92125 30.861C3.11589 30.0176 3.54363 29.2458 4.1557 28.6337L30.2113 2.57678C33.6468 -0.858849 39.2168 -0.858941 42.6525 2.57659ZM32.3887 4.75405L6.33309 30.811C6.12906 31.015 5.98648 31.2723 5.9216 31.5534L3.59487 41.6359L13.6773 39.3092C13.9585 39.2443 14.2158 39.1017 14.4198 38.8977L40.4753 12.8408C42.7084 10.6076 42.7083 6.98708 40.4752 4.75396C38.2421 2.52091 34.6217 2.52098 32.3887 4.75405Z" fill="white"/>
</g>
</g>
</svg>
