<svg width="42" height="53" viewBox="0 0 42 53" fill="none" xmlns="http://www.w3.org/2000/svg">
<path id="Vector" d="M16.25 36.3H25.75M13.4 51H28.6C32.5905 51 34.5855 51 36.1097 50.1989C37.4504 49.4942 38.5403 48.3699 39.2234 46.9869C40 45.4145 40 43.3565 40 39.24V13.76C40 9.64361 40 7.58541 39.2234 6.01317C38.5403 4.63017 37.4504 3.50577 36.1097 2.8011C34.5855 2 32.5905 2 28.6 2H13.4C9.40962 2 7.41443 2 5.89032 2.8011C4.54966 3.50577 3.45968 4.63017 2.77658 6.01317C2 7.58541 2 9.64361 2 13.76V39.24C2 43.3565 2 45.4145 2.77658 46.9869C3.45968 48.3699 4.54966 49.4942 5.89032 50.1989C7.41443 51 9.40962 51 13.4 51ZM28.125 19.15C28.125 23.2094 24.9351 26.5 21 26.5C17.0649 26.5 13.875 23.2094 13.875 19.15C13.875 15.0907 17.0649 11.8 21 11.8C24.9351 11.8 28.125 15.0907 28.125 19.15Z" stroke="white" stroke-width="3" stroke-linecap="round" stroke-linejoin="round"/>
</svg>
