<svg width="60" height="49" viewBox="0 0 60 49" fill="none" xmlns="http://www.w3.org/2000/svg">
<path id="Vector" d="M2 12.5L10.468 19.3046C11.0271 19.754 11.7319 20 12.4597 20H47.5401C48.2681 20 48.9728 19.754 49.5319 19.3046L58 12.5M12.8889 30.5H12.92M47.1111 30.5H47.1422M18.0554 2H41.9448C44.1776 2 46.2394 3.15371 47.3469 5.02316L56.3604 20.2331C57.4347 22.0463 58 24.0983 58 26.1869V44C58 45.6569 56.6072 47 54.8889 47H51.7778C50.0595 47 48.6667 45.6569 48.6667 44V41H11.3333V44C11.3333 45.6569 9.94043 47 8.22222 47H5.11111C3.39291 47 2 45.6569 2 44V26.1869C2 24.0983 2.56516 22.0463 3.63965 20.2331L12.6529 5.02316C13.7607 3.15371 15.8224 2 18.0554 2ZM14.4444 30.5C14.4444 31.3283 13.748 32 12.8889 32C12.0298 32 11.3333 31.3283 11.3333 30.5C11.3333 29.6717 12.0298 29 12.8889 29C13.748 29 14.4444 29.6717 14.4444 30.5ZM48.6667 30.5C48.6667 31.3283 47.9701 32 47.1111 32C46.2521 32 45.5556 31.3283 45.5556 30.5C45.5556 29.6717 46.2521 29 47.1111 29C47.9701 29 48.6667 29.6717 48.6667 30.5Z" stroke="white" stroke-width="3" stroke-linecap="round" stroke-linejoin="round"/>
</svg>
