<svg width="39" height="49" viewBox="0 0 39 49" fill="none" xmlns="http://www.w3.org/2000/svg">
<g id="Group 1261154019">
<path id="Vector" d="M21 31.4998H17.5V38.4998H21V31.4998Z" fill="white"/>
<path id="Vector_2" d="M29.7495 27.9991H26.2495V38.4991H29.7495V27.9991Z" fill="white"/>
<path id="Vector_3" d="M12.2495 21.0009H8.74951V38.5009H12.2495V21.0009Z" fill="white"/>
<path id="Vector_4" d="M35 5.25H29.75V3.5C29.75 2.57174 29.3813 1.6815 28.7249 1.02513C28.0685 0.368749 27.1783 0 26.25 0H12.25C11.3217 0 10.4315 0.368749 9.77513 1.02513C9.11875 1.6815 8.75 2.57174 8.75 3.5V5.25H3.5C2.57174 5.25 1.6815 5.61875 1.02513 6.27513C0.368749 6.9315 0 7.82174 0 8.75V45.5C0 46.4283 0.368749 47.3185 1.02513 47.9749C1.6815 48.6312 2.57174 49 3.5 49H35C35.9283 49 36.8185 48.6312 37.4749 47.9749C38.1312 47.3185 38.5 46.4283 38.5 45.5V8.75C38.5 7.82174 38.1312 6.9315 37.4749 6.27513C36.8185 5.61875 35.9283 5.25 35 5.25ZM12.25 3.5H26.25V10.5H12.25V3.5ZM35 45.5H3.5V8.75H8.75V14H29.75V8.75H35V45.5Z" fill="white"/>
</g>
</svg>
