<svg width="45" height="45" viewBox="0 0 45 45" fill="none" xmlns="http://www.w3.org/2000/svg">
<g id="Group 1261154021">
<path id="Vector" fill-rule="evenodd" clip-rule="evenodd" d="M19.9623 0.503558C21.4765 -0.167853 23.1905 -0.167853 24.7047 0.503558L42.2295 8.27434C46.2406 10.0529 45.0127 16.2425 40.6487 16.2425H4.01812C-0.345825 16.2425 -1.57371 10.0529 2.43733 8.27434L19.9623 0.503558ZM23.1239 4.3198C22.6191 4.096 22.0478 4.096 21.5431 4.3198L4.8946 11.7018C4.69405 11.7907 4.75751 12.0904 4.97689 12.0904H39.69C39.9095 12.0904 39.9728 11.7907 39.7722 11.7018L23.1239 4.3198Z" fill="white"/>
<path id="Vector_2" d="M2.03125 42.6358C2.03125 41.5145 2.94026 40.6055 4.06156 40.6055H40.6072C41.7286 40.6055 42.6375 41.5145 42.6375 42.6358C42.6375 43.7572 41.7286 44.6662 40.6072 44.6662H4.06156C2.94026 44.6662 2.03125 43.7572 2.03125 42.6358Z" fill="white"/>
<path id="Vector_3" d="M20.3022 36.5455C20.3022 37.6668 21.2112 38.5758 22.3326 38.5758C23.4539 38.5758 24.3629 37.6668 24.3629 36.5455V20.303C24.3629 19.1816 23.4539 18.2726 22.3326 18.2726C21.2112 18.2726 20.3022 19.1816 20.3022 20.303V36.5455Z" fill="white"/>
<path id="Vector_4" d="M10.1514 38.5758C9.03011 38.5758 8.12109 37.6668 8.12109 36.5455V20.303C8.12109 19.1816 9.03009 18.2726 10.1514 18.2726C11.2727 18.2726 12.1817 19.1816 12.1817 20.303V36.5455C12.1817 37.6668 11.2727 38.5758 10.1514 38.5758Z" fill="white"/>
<path id="Vector_5" d="M32.4854 36.5455C32.4854 37.6668 33.3943 38.5758 34.5157 38.5758C35.637 38.5758 36.546 37.6668 36.546 36.5455V20.303C36.546 19.1816 35.637 18.2726 34.5157 18.2726C33.3943 18.2726 32.4854 19.1816 32.4854 20.303V36.5455Z" fill="white"/>
</g>
</svg>
