<svg width="47" height="43" viewBox="0 0 47 43" fill="none" xmlns="http://www.w3.org/2000/svg">
<g id="Group 1261154020">
<path id="Vector" d="M3.87053 35.7161C3.87053 34.1207 5.16915 32.8221 6.76457 32.8221H21.2359V28.9595H12.569C10.9736 28.9595 9.675 27.6609 9.675 26.0654C9.675 24.469 10.9736 23.1703 12.569 23.1703H21.2591V19.3077H6.75718C5.16176 19.3077 3.86313 18.0091 3.86313 16.4137C3.86313 14.8183 5.16176 13.5196 6.75718 13.5196H33.8176C37.5445 13.5196 40.5774 10.4867 40.5774 6.75982C40.5774 3.03294 37.5445 0 33.8176 0H12.5722C8.84533 0 5.81239 3.03294 5.81239 6.75982C5.81239 7.81076 6.07433 8.7941 6.50422 9.68239C2.89775 9.81864 0 12.7745 0 16.4137C0 20.0529 2.89669 23.0082 6.50316 23.145C6.07381 24.0327 5.81239 25.0156 5.81239 26.066C5.81239 27.1164 6.07381 28.0992 6.50316 28.9864C2.90091 29.1274 0.00739352 32.0806 0.00739352 35.7172C0.00739352 39.443 3.03822 42.4744 6.76457 42.4744H25.1275V38.6118H6.76457C5.16915 38.6107 3.87053 37.3121 3.87053 35.7161ZM12.5722 3.86208H33.8176C35.4151 3.86208 36.7148 5.16176 36.7148 6.75929C36.7148 8.35683 35.4151 9.65651 33.8176 9.65651H12.5722C10.9747 9.65651 9.675 8.35683 9.675 6.75929C9.675 5.16176 10.9747 3.86208 12.5722 3.86208Z" fill="white"/>
<path id="Vector_2" d="M34.7748 15.4456L23.187 21.2395V26.3231C23.187 32.6768 26.7766 38.4855 32.4596 41.3267L34.7748 42.4843L37.0901 41.3267C42.7731 38.4849 46.3632 32.6768 46.3632 26.3231V21.2395L34.7748 15.4456ZM42.5006 26.3231C42.5006 31.2456 39.7655 35.6706 35.3631 37.8723L34.7754 38.166L34.1876 37.8723C29.7842 35.6706 27.0496 31.2456 27.0496 26.3231V23.6271L34.7754 19.7644L42.5011 23.6271V26.3231H42.5006Z" fill="white"/>
<path id="Vector_3" d="M31.5026 27.1638L29.5845 29.3349L34.8571 33.996L41.3339 26.5443L39.148 24.6431L34.5873 29.8899L31.5026 27.1638Z" fill="white"/>
</g>
</svg>
