<svg width="26" height="35" viewBox="0 0 26 35" fill="none" xmlns="http://www.w3.org/2000/svg">
<path fill-rule="evenodd" clip-rule="evenodd" d="M13 3.30241C10.4334 3.30241 7.9719 4.31311 6.15704 6.11217C4.34217 7.91123 3.32259 10.3513 3.32259 12.8955C3.32259 15.4398 4.34217 17.8798 6.15704 19.6789C7.9719 21.478 10.4334 22.4887 13 22.4887C15.5666 22.4887 18.0281 21.478 19.843 19.6789C21.6578 17.8798 22.6774 15.4398 22.6774 12.8955C22.6774 10.3513 21.6578 7.91123 19.843 6.11217C18.0281 4.31311 15.5666 3.30241 13 3.30241ZM1.00001 12.8955C1 10.9239 1.49436 8.98323 2.43863 7.24798C3.38289 5.51274 4.74746 4.03736 6.40959 2.95455C8.07172 1.87174 9.97929 1.21545 11.9608 1.0447C13.9422 0.873947 15.9354 1.1941 17.7611 1.97635C19.5868 2.75861 21.1877 3.97843 22.4199 5.52613C23.652 7.07382 24.4768 8.90085 24.82 10.8429C25.1632 12.7849 25.0141 14.7811 24.386 16.6518C23.7579 18.5225 22.6707 20.2092 21.2219 21.5601C21.263 21.6365 21.2952 21.7174 21.3179 21.801L22.3244 25.4372C22.7935 27.1364 23.1729 28.5039 23.3448 29.5661C23.5135 30.6068 23.5476 31.6781 22.9608 32.5499C22.6263 33.0457 22.1711 33.4525 21.6354 33.7226C20.6599 34.2138 19.5961 33.9728 18.6439 33.6152C17.6715 33.2529 16.4514 32.6221 14.9525 31.847L14.8797 31.8101C13.7587 31.2315 13.4661 31.101 13.1843 31.0718C13.0618 31.0588 12.9382 31.0588 12.8157 31.0718C12.5339 31.101 12.2428 31.2315 11.1203 31.8101L11.0475 31.847C9.54865 32.6221 8.32852 33.2514 7.35613 33.6152C6.40388 33.9728 5.34014 34.2138 4.36465 33.7226C3.82888 33.4506 3.37251 33.0468 3.03923 32.5499C2.4524 31.6781 2.48646 30.6068 2.65523 29.5661C2.8271 28.5039 3.20646 27.1364 3.67717 25.4372L4.68207 21.7995C4.70498 21.7164 4.73718 21.6361 4.77807 21.5601C3.58364 20.449 2.63202 19.1068 1.98215 17.6164C1.33228 16.126 0.998 14.5192 1.00001 12.8955ZM6.74452 23.0489L5.93626 25.9744C5.44078 27.7611 5.09859 29.0074 4.94839 29.9314C4.79356 30.8907 4.90968 31.1793 4.97162 31.2698C5.08359 31.4396 5.23767 31.5781 5.4191 31.672C5.45472 31.6889 5.67614 31.784 6.53704 31.4617C7.36233 31.1532 8.45704 30.5883 10.0472 29.7687L10.2067 29.6858C11.0862 29.23 11.7938 28.8646 12.5696 28.7818C12.856 28.7511 13.144 28.7511 13.4305 28.7818C14.2046 28.8631 14.9138 29.23 15.7933 29.6858L15.9528 29.7687C17.5414 30.5883 18.6377 31.1532 19.463 31.4617C20.3239 31.784 20.5468 31.6889 20.5809 31.672C20.7629 31.5783 20.9175 31.4398 21.0299 31.2698C21.0919 31.1777 21.2065 30.8907 21.0516 29.9314C20.9014 29.0074 20.5577 27.7611 20.0653 25.9744L19.2555 23.0489C17.3728 24.1915 15.2075 24.7945 13 24.791C10.7925 24.7945 8.62722 24.1915 6.74452 23.0489Z" fill="white" stroke="white" stroke-width="0.5"/>
</svg>
