<svg width="33" height="35" viewBox="0 0 33 35" fill="none" xmlns="http://www.w3.org/2000/svg">
<g id="Group 1261154025">
<path id="Vector" d="M25.2758 11.2595L25.9865 10.5489C27.1638 9.37152 29.0728 9.37152 30.2501 10.5489C31.4275 11.7263 31.4275 13.6352 30.2501 14.8125L29.5396 15.5232M25.2758 11.2595C25.2758 11.2595 25.3647 12.7695 26.6971 14.1019C28.0295 15.4343 29.5396 15.5232 29.5396 15.5232M25.2758 11.2595L18.7429 17.7924C18.3004 18.2349 18.0791 18.4561 17.8888 18.7001C17.6645 18.9879 17.4721 19.2993 17.3151 19.6287C17.182 19.9081 17.0829 20.2048 16.8851 20.7985L16.2515 22.6992L16.0465 23.314M29.5396 15.5232L23.0066 22.0561C22.5641 22.4986 22.3429 22.7199 22.0989 22.9102C21.8111 23.1345 21.4997 23.3269 21.1703 23.4839C20.8909 23.617 20.5942 23.7161 20.0005 23.9139L18.0998 24.5475L17.485 24.7525M16.0465 23.314L15.8415 23.9291C15.7442 24.2212 15.8202 24.5433 16.038 24.761C16.2557 24.9788 16.5778 25.0548 16.8699 24.9575L17.485 24.7525M16.0465 23.314L17.485 24.7525" stroke="white" stroke-width="3"/>
<path id="Vector_2" d="M9.66699 18.8676H13.5003" stroke="white" stroke-width="3" stroke-linecap="round"/>
<path id="Vector_3" d="M9.66699 12.7327H19.6336" stroke="white" stroke-width="3" stroke-linecap="round"/>
<path id="Vector_4" d="M9.66699 25H11.967" stroke="white" stroke-width="3" stroke-linecap="round"/>
<path id="Vector_5" d="M27.8035 3.79641C26.0072 2 23.1158 2 17.3333 2H14.2667C8.48409 2 5.59283 2 3.7964 3.79641C2 5.59283 2 8.48409 2 14.2667V20.4C2 26.1825 2 29.0739 3.7964 30.8702C5.59283 32.6666 8.48409 32.6666 14.2667 32.6666H17.3333C23.1158 32.6666 26.0072 32.6666 27.8035 30.8702C29.2496 29.4241 29.5316 27.2687 29.5866 23.4666" stroke="white" stroke-width="3" stroke-linecap="round"/>
</g>
</svg>
