<svg width="34" height="34" viewBox="0 0 34 34" fill="none" xmlns="http://www.w3.org/2000/svg">
<g id="Group 1261154024">
<path id="primary" d="M31.9997 5.33308L16.9997 20.3331L10.333 13.6664" stroke="white" stroke-width="3" stroke-linecap="round" stroke-linejoin="round"/>
<path id="primary_2" d="M31.9 15.3333C31.9671 15.8864 32.0005 16.4429 32 17C32 19.9667 31.1203 22.8668 29.4721 25.3336C27.8239 27.8003 25.4812 29.7229 22.7403 30.8582C19.9994 31.9935 16.9834 32.2906 14.0737 31.7118C11.1639 31.133 8.4912 29.7044 6.39341 27.6066C4.29562 25.5088 2.86701 22.8361 2.28823 19.9264C1.70945 17.0167 2.0065 14.0007 3.14181 11.2598C4.27713 8.51886 6.19972 6.17618 8.66646 4.52796C11.1332 2.87974 14.0333 2 17 2C19.3226 2.02168 21.6071 2.5928 23.6667 3.66667" stroke="white" stroke-width="3" stroke-linecap="round" stroke-linejoin="round"/>
</g>
</svg>
