<svg width="32" height="35" viewBox="0 0 32 35" fill="none" xmlns="http://www.w3.org/2000/svg">
<g id="Group 1261154021">
<path id="Vector" d="M2 14.2667C2 8.48409 2 5.59283 3.7964 3.79641C5.59283 2 8.48409 2 14.2667 2H17.3333C23.1158 2 26.0072 2 27.8035 3.79641C29.6 5.59283 29.6 8.48409 29.6 14.2667V20.4C29.6 26.1825 29.6 29.0739 27.8035 30.8702C26.0072 32.6666 23.1158 32.6666 17.3333 32.6666H14.2667C8.48409 32.6666 5.59283 32.6666 3.7964 30.8702C2 29.0739 2 26.1825 2 20.4V14.2667Z" stroke="white" stroke-width="3"/>
<path id="Vector_2" d="M9.66699 17.3331H21.9336" stroke="white" stroke-width="3" stroke-linecap="round"/>
<path id="Vector_3" d="M9.66699 11.2004H21.9336" stroke="white" stroke-width="3" stroke-linecap="round"/>
<path id="Vector_4" d="M9.66699 23.4665H17.3336" stroke="white" stroke-width="3" stroke-linecap="round"/>
</g>
</svg>
