<svg width="33" height="33" viewBox="0 0 33 33" fill="none" xmlns="http://www.w3.org/2000/svg">
<path id="Vector" d="M16.5 0C25.6129 0 33 7.38705 33 16.5C33 25.6129 25.6129 33 16.5 33C7.38705 33 0 25.6129 0 16.5C0 7.38705 7.38705 0 16.5 0ZM16.5 3.3C12.9991 3.3 9.64167 4.69071 7.16619 7.16619C4.69071 9.64167 3.3 12.9991 3.3 16.5C3.3 20.0009 4.69071 23.3583 7.16619 25.8338C9.64167 28.3093 12.9991 29.7 16.5 29.7C20.0009 29.7 23.3583 28.3093 25.8338 25.8338C28.3093 23.3583 29.7 20.0009 29.7 16.5C29.7 12.9991 28.3093 9.64167 25.8338 7.16619C23.3583 4.69071 20.0009 3.3 16.5 3.3ZM16.5 6.6C16.9041 6.60005 17.2942 6.74843 17.5962 7.01698C17.8982 7.28553 18.0912 7.65559 18.1385 8.05695L18.15 8.25V15.8169L22.6165 20.2834C22.9125 20.5804 23.0843 20.9788 23.0971 21.3978C23.1099 21.8168 22.9627 22.225 22.6854 22.5395C22.4082 22.8539 22.0216 23.051 21.6043 23.0908C21.187 23.1305 20.7702 23.0099 20.4385 22.7535L20.2834 22.6165L15.3335 17.6665C15.077 17.4099 14.9123 17.0759 14.8648 16.7161L14.85 16.5V8.25C14.85 7.81239 15.0238 7.39271 15.3333 7.08327C15.6427 6.77384 16.0624 6.6 16.5 6.6Z" fill="white"/>
</svg>
