<svg width="26" height="35" viewBox="0 0 26 35" fill="none" xmlns="http://www.w3.org/2000/svg">
<path id="Vector" d="M3 0C1.34315 0 0 1.34315 0 3V32C0 33.6569 1.34315 35 3 35H23C24.6569 35 26 33.6569 26 32V3C26 1.34315 24.6569 0 23 0H3ZM23.6364 29.5C23.6364 31.1569 22.2932 32.5 20.6364 32.5H5.36364C3.70678 32.5 2.36364 31.1569 2.36364 29.5V5.5C2.36364 3.84315 3.70678 2.5 5.36364 2.5H20.6364C22.2932 2.5 23.6364 3.84315 23.6364 5.5V29.5ZM11.8182 8C11.8182 6.34315 10.475 5 8.81818 5H7.72727C6.07042 5 4.72727 6.34315 4.72727 8V9.5C4.72727 11.1569 6.07042 12.5 7.72727 12.5H8.81818C10.475 12.5 11.8182 11.1569 11.8182 9.5V8ZM9.45455 8.81818C9.45455 9.47088 8.92543 10 8.27273 10C7.62003 10 7.09091 9.47088 7.09091 8.81818V8.68182C7.09091 8.02912 7.62003 7.5 8.27273 7.5C8.92543 7.5 9.45455 8.02912 9.45455 8.68182V8.81818ZM21.2727 8.75C21.2727 9.44036 20.7131 10 20.0227 10H14.25C13.5596 10 13 9.44036 13 8.75C13 8.05964 13.5596 7.5 14.25 7.5H20.0227C20.7131 7.5 21.2727 8.05964 21.2727 8.75ZM11.8182 16.75C11.8182 15.0931 10.475 13.75 8.81818 13.75H7.72727C6.07042 13.75 4.72727 15.0931 4.72727 16.75V18.25C4.72727 19.9069 6.07042 21.25 7.72727 21.25H8.81818C10.475 21.25 11.8182 19.9069 11.8182 18.25V16.75ZM9.45455 17.5682C9.45455 18.2209 8.92543 18.75 8.27273 18.75C7.62003 18.75 7.09091 18.2209 7.09091 17.5682V17.4318C7.09091 16.7791 7.62003 16.25 8.27273 16.25C8.92543 16.25 9.45455 16.7791 9.45455 17.4318V17.5682ZM21.2727 17.5C21.2727 18.1904 20.7131 18.75 20.0227 18.75H14.25C13.5596 18.75 13 18.1904 13 17.5C13 16.8096 13.5596 16.25 14.25 16.25H20.0227C20.7131 16.25 21.2727 16.8096 21.2727 17.5ZM11.8182 25.5C11.8182 23.8431 10.475 22.5 8.81818 22.5H7.72727C6.07042 22.5 4.72727 23.8431 4.72727 25.5V27C4.72727 28.6569 6.07042 30 7.72727 30H8.81818C10.475 30 11.8182 28.6569 11.8182 27V25.5ZM9.45455 26.3182C9.45455 26.9709 8.92543 27.5 8.27273 27.5C7.62003 27.5 7.09091 26.9709 7.09091 26.3182V26.1818C7.09091 25.5291 7.62003 25 8.27273 25C8.92543 25 9.45455 25.5291 9.45455 26.1818V26.3182ZM21.2727 26.25C21.2727 26.9404 20.7131 27.5 20.0227 27.5H14.25C13.5596 27.5 13 26.9404 13 26.25C13 25.5596 13.5596 25 14.25 25H20.0227C20.7131 25 21.2727 25.5596 21.2727 26.25Z" fill="white"/>
</svg>
