<svg width="25" height="24" viewBox="0 0 25 24" fill="none" xmlns="http://www.w3.org/2000/svg">
<g id="Group 1261153954">
<path id="Vector" d="M1 11.7182C1 7.46342 1 5.33606 2.32177 4.01428C3.64356 2.6925 5.77092 2.6925 10.0257 2.6925H14.5385C18.7932 2.6925 20.9206 2.6925 22.2423 4.01428C23.5641 5.33606 23.5641 7.46342 23.5641 11.7182V13.9746C23.5641 18.2293 23.5641 20.3567 22.2423 21.6784C20.9206 23.0002 18.7932 23.0002 14.5385 23.0002H10.0257C5.77092 23.0002 3.64356 23.0002 2.32177 21.6784C1 20.3567 1 18.2293 1 13.9746V11.7182Z" stroke="white" stroke-width="2"/>
<path id="Vector_2" d="M6.64062 2.69231V1" stroke="white" stroke-width="2" stroke-linecap="round"/>
<path id="Vector_3" d="M17.9229 2.69231V1" stroke="white" stroke-width="2" stroke-linecap="round"/>
<path id="Vector_4" d="M1.56445 8.33301H23.0004" stroke="white" stroke-width="2" stroke-linecap="round"/>
<path id="Vector_5" d="M19.0513 17.3597C19.0513 17.9828 18.5462 18.4879 17.9231 18.4879C17.3 18.4879 16.7949 17.9828 16.7949 17.3597C16.7949 16.7365 17.3 16.2314 17.9231 16.2314C18.5462 16.2314 19.0513 16.7365 19.0513 17.3597Z" fill="white"/>
<path id="Vector_6" d="M19.0513 12.8461C19.0513 13.4692 18.5462 13.9743 17.9231 13.9743C17.3 13.9743 16.7949 13.4692 16.7949 12.8461C16.7949 12.223 17.3 11.7179 17.9231 11.7179C18.5462 11.7179 19.0513 12.223 19.0513 12.8461Z" fill="white"/>
<path id="Vector_7" d="M13.4107 17.3597C13.4107 17.9828 12.9056 18.4879 12.2825 18.4879C11.6594 18.4879 11.1543 17.9828 11.1543 17.3597C11.1543 16.7365 11.6594 16.2314 12.2825 16.2314C12.9056 16.2314 13.4107 16.7365 13.4107 17.3597Z" fill="white"/>
<path id="Vector_8" d="M13.4107 12.846C13.4107 13.4691 12.9056 13.9742 12.2825 13.9742C11.6594 13.9742 11.1543 13.4691 11.1543 12.846C11.1543 12.2229 11.6594 11.7178 12.2825 11.7178C12.9056 11.7178 13.4107 12.2229 13.4107 12.846Z" fill="white"/>
<path id="Vector_9" d="M7.76911 17.3597C7.76911 17.9828 7.26399 18.4879 6.6409 18.4879C6.01782 18.4879 5.5127 17.9828 5.5127 17.3597C5.5127 16.7365 6.01782 16.2314 6.6409 16.2314C7.26399 16.2314 7.76911 16.7365 7.76911 17.3597Z" fill="white"/>
<path id="Vector_10" d="M7.76911 12.8461C7.76911 13.4692 7.26399 13.9743 6.6409 13.9743C6.01782 13.9743 5.5127 13.4692 5.5127 12.8461C5.5127 12.223 6.01782 11.7179 6.6409 11.7179C7.26399 11.7179 7.76911 12.223 7.76911 12.8461Z" fill="white"/>
</g>
</svg>
