<svg width="26" height="26" viewBox="0 0 26 26" fill="none" xmlns="http://www.w3.org/2000/svg">
<path id="Vector" d="M1 25H24.9998M1 21H24.9998M4.7644 1.00049C5.31769 1.48911 5.66662 2.2038 5.66662 3C5.66662 4.47276 4.47273 5.66667 2.99998 5.66667C2.20379 5.66667 1.4891 5.31773 1.00049 4.76444M4.7644 1.00049C4.92188 1 5.08897 1 5.26662 1H20.7331C20.9107 1 21.0779 1 21.2354 1.00049M4.7644 1.00049C3.598 1.00411 2.95858 1.03457 2.45601 1.29065C1.95424 1.54631 1.5463 1.95425 1.29065 2.45603C1.03457 2.9586 1.00411 3.59803 1.00049 4.76444M1.00049 4.76444C1 4.92192 1 5.08901 1 5.26667V12.7333C1 12.9109 1 13.0781 1.00049 13.2356M21.2354 1.00049C20.6821 1.48911 20.3331 2.2038 20.3331 3C20.3331 4.47276 21.527 5.66667 22.9998 5.66667C23.7959 5.66667 24.5107 5.31773 24.9992 4.76444M21.2354 1.00049C22.4018 1.00411 23.0412 1.03457 23.5438 1.29065C24.0455 1.54631 24.4535 1.95425 24.7091 2.45603C24.9652 2.9586 24.9956 3.59803 24.9992 4.76444M1.00049 13.2356C1.4891 12.6823 2.20379 12.3333 2.99998 12.3333C4.47273 12.3333 5.66662 13.5272 5.66662 15C5.66662 15.7961 5.31769 16.5109 4.7644 16.9995M1.00049 13.2356C1.00411 14.402 1.03457 15.0413 1.29065 15.544C1.5463 16.0457 1.95424 16.4537 2.45601 16.7093C2.95858 16.9655 3.598 16.9959 4.7644 16.9995M4.7644 16.9995C4.92188 17 5.08897 17 5.26662 17H20.7331C20.9107 17 21.0779 17 21.2354 16.9995M21.2354 16.9995C20.6821 16.5109 20.3331 15.7961 20.3331 15C20.3331 13.5272 21.527 12.3333 22.9998 12.3333C23.7962 12.3333 24.5111 12.6825 24.9998 13.2361M21.2354 16.9995C22.4018 16.9959 23.0412 16.9655 23.5438 16.7093C24.0455 16.4537 24.4535 16.0457 24.7091 15.544C24.9651 15.0415 24.9962 14.4021 24.9998 13.2361M24.9998 13.2361C25.0003 13.0785 24.9998 12.9112 24.9998 12.7333V5.26667C24.9998 5.08901 24.9998 4.92192 24.9992 4.76444M15.6665 9C15.6665 10.4728 14.4727 11.6667 12.9999 11.6667C11.5271 11.6667 10.3332 10.4728 10.3332 9C10.3332 7.52724 11.5271 6.33333 12.9999 6.33333C14.4727 6.33333 15.6665 7.52724 15.6665 9Z" stroke="white" stroke-width="2" stroke-linecap="round" stroke-linejoin="round"/>
</svg>
