<svg width="29" height="23" viewBox="0 0 29 23" fill="none" xmlns="http://www.w3.org/2000/svg">
<path d="M1.72559 8.26172H26.4165" stroke="white" stroke-width="2" stroke-linecap="round"/>
<path d="M5.35742 14.0723H8.26223" stroke="white" stroke-width="2" stroke-linecap="round"/>
<path d="M12.6191 14.0723H15.524" stroke="white" stroke-width="2" stroke-linecap="round"/>
<path d="M1 6.80962C1 4.07094 1 2.7016 1.8508 1.85081C2.7016 1 4.07094 1 6.80962 1H14.0717H21.3337C24.0723 1 25.4417 1 26.2925 1.85081C27.1433 2.7016 27.1433 4.07094 27.1433 6.80962V11.1668V15.5241C27.1433 18.2627 27.1433 19.632 26.2925 20.4829C25.4417 21.3337 24.0723 21.3337 21.3337 21.3337H14.0717H6.80962C4.07094 21.3337 2.7016 21.3337 1.8508 20.4829C1 19.632 1 18.2627 1 15.5241V11.1668V6.80962Z" stroke="white" stroke-width="2" stroke-linejoin="round"/>
</svg>
