<svg width="20" height="20" viewBox="0 0 20 20" fill="none" xmlns="http://www.w3.org/2000/svg">
<path id="Vector" d="M4.375 8.75C3.16667 8.75 2.13542 8.32292 1.28125 7.46875C0.427083 6.61458 0 5.58333 0 4.375C0 3.16667 0.427083 2.13542 1.28125 1.28125C2.13542 0.427083 3.16667 0 4.375 0C5.58333 0 6.61458 0.427083 7.46875 1.28125C8.32292 2.13542 8.75 3.16667 8.75 4.375C8.75 5.58333 8.32292 6.61458 7.46875 7.46875C6.61458 8.32292 5.58333 8.75 4.375 8.75ZM4.375 6.25C4.89583 6.25 5.33875 6.0675 5.70375 5.7025C6.06875 5.3375 6.25083 4.895 6.25 4.375C6.25 3.85417 6.0675 3.41125 5.7025 3.04625C5.3375 2.68125 4.895 2.49917 4.375 2.5C3.85417 2.5 3.41125 2.6825 3.04625 3.0475C2.68125 3.4125 2.49917 3.855 2.5 4.375C2.5 4.89583 2.6825 5.33875 3.0475 5.70375C3.4125 6.06875 3.855 6.25083 4.375 6.25ZM15.625 20C14.4167 20 13.3854 19.5729 12.5312 18.7188C11.6771 17.8646 11.25 16.8333 11.25 15.625C11.25 14.4167 11.6771 13.3854 12.5312 12.5312C13.3854 11.6771 14.4167 11.25 15.625 11.25C16.8333 11.25 17.8646 11.6771 18.7188 12.5312C19.5729 13.3854 20 14.4167 20 15.625C20 16.8333 19.5729 17.8646 18.7188 18.7188C17.8646 19.5729 16.8333 20 15.625 20ZM15.625 17.5C16.1458 17.5 16.5887 17.3175 16.9538 16.9525C17.3188 16.5875 17.5008 16.145 17.5 15.625C17.5 15.1042 17.3175 14.6613 16.9525 14.2963C16.5875 13.9313 16.145 13.7492 15.625 13.75C15.1042 13.75 14.6613 13.9325 14.2963 14.2975C13.9313 14.6625 13.7492 15.105 13.75 15.625C13.75 16.1458 13.9325 16.5887 14.2975 16.9538C14.6625 17.3188 15.105 17.5008 15.625 17.5ZM1.75 20L0 18.25L18.25 0L20 1.75L1.75 20Z" fill="white"/>
</svg>
