<svg width="26" height="27" viewBox="0 0 26 27" fill="none" xmlns="http://www.w3.org/2000/svg">
<g id="Group 1261153955">
<path id="Vector" d="M19.7216 8.44785L20.2933 7.87628C21.2402 6.92926 22.7757 6.92926 23.7227 7.87628C24.6697 8.82329 24.6697 10.3587 23.7227 11.3057L23.1511 11.8773M19.7216 8.44785C19.7216 8.44785 19.7931 9.66245 20.8648 10.7342C21.9366 11.8058 23.1511 11.8773 23.1511 11.8773M19.7216 8.44785L14.4669 13.7025C14.1109 14.0585 13.933 14.2365 13.7799 14.4327C13.5995 14.6642 13.4447 14.9147 13.3184 15.1796C13.2114 15.4043 13.1317 15.6429 12.9726 16.1205L12.463 17.6493L12.2981 18.1439M23.1511 11.8773L17.8964 17.1321C17.5405 17.488 17.3625 17.666 17.1663 17.819C16.9348 17.9995 16.6843 18.1543 16.4194 18.2805C16.1947 18.3876 15.956 18.4673 15.4785 18.6264L13.9496 19.136L13.4551 19.3009M12.2981 18.1439L12.1332 18.6386C12.0549 18.8735 12.116 19.1327 12.2912 19.3078C12.4663 19.4829 12.7254 19.5441 12.9604 19.4658L13.4551 19.3009M12.2981 18.1439L13.4551 19.3009" stroke="white" stroke-width="2"/>
<path id="Vector_2" d="M7.16699 14.5676H10.2503" stroke="white" stroke-width="2" stroke-linecap="round"/>
<path id="Vector_3" d="M7.16699 9.63281H15.1836" stroke="white" stroke-width="2" stroke-linecap="round"/>
<path id="Vector_4" d="M7.16699 19.5H9.01699" stroke="white" stroke-width="2" stroke-linecap="round"/>
<path id="Vector_5" d="M21.755 2.44493C20.3101 1 17.9845 1 13.3333 1H10.8667C6.21546 1 3.88988 1 2.44493 2.44493C1 3.88988 1 6.21546 1 10.8667V15.8C1 20.4511 1 22.7768 2.44493 24.2217C3.88988 25.6666 6.21546 25.6666 10.8667 25.6666H13.3333C17.9845 25.6666 20.3101 25.6666 21.755 24.2217C22.9181 23.0585 23.145 21.3248 23.1892 18.2666" stroke="white" stroke-width="2" stroke-linecap="round"/>
</g>
</svg>
