<svg width="14" height="22" viewBox="0 0 14 22" fill="none" xmlns="http://www.w3.org/2000/svg">
<path d="M13.036 2.02306C13.1442 1.9192 13.2287 1.79702 13.2849 1.66351C13.341 1.52999 13.3676 1.38775 13.3632 1.2449C13.3587 1.10206 13.3233 0.96141 13.2589 0.830986C13.1945 0.700562 13.1025 0.582917 12.988 0.484769C12.8735 0.38662 12.7388 0.30989 12.5916 0.258959C12.4444 0.208028 12.2876 0.183894 12.1302 0.187935C11.9727 0.191976 11.8176 0.224112 11.6739 0.28251C11.5301 0.340907 11.4004 0.424421 11.2922 0.528285L1.09832 10.3194C0.887805 10.5214 0.770508 10.7888 0.770508 11.0668C0.770508 11.3448 0.887805 11.6122 1.09832 11.8142L11.2922 21.6064C11.3997 21.7125 11.5293 21.7983 11.6737 21.8585C11.818 21.9188 11.974 21.9525 12.1328 21.9576C12.2916 21.9628 12.4499 21.9392 12.5986 21.8884C12.7472 21.8375 12.8833 21.7604 12.9988 21.6614C13.1143 21.5625 13.207 21.4437 13.2715 21.312C13.3359 21.1802 13.3709 21.0382 13.3744 20.8941C13.3778 20.75 13.3497 20.6068 13.2916 20.4726C13.2335 20.3385 13.1466 20.2161 13.036 20.1127L3.61921 11.0668L13.036 2.02306Z" fill="#271C6C"/>
</svg>
