<svg width="14" height="22" viewBox="0 0 14 22" fill="none" xmlns="http://www.w3.org/2000/svg">
<path d="M1.13006 20.1215C1.02186 20.2253 0.937275 20.3475 0.88113 20.481C0.824985 20.6145 0.798379 20.7568 0.802834 20.8996C0.807288 21.0425 0.842715 21.1831 0.907091 21.3135C0.971467 21.444 1.06353 21.5616 1.17803 21.6598C1.29252 21.7579 1.42721 21.8346 1.5744 21.8856C1.72158 21.9365 1.87839 21.9606 2.03585 21.9566C2.19332 21.9526 2.34837 21.9204 2.49215 21.862C2.63593 21.8036 2.76561 21.7201 2.87381 21.6162L13.0677 11.8251C13.2782 11.6231 13.3955 11.3557 13.3955 11.0777C13.3955 10.7998 13.2782 10.5323 13.0677 10.3303L2.87381 0.53812C2.76633 0.431984 2.63667 0.346275 2.49236 0.28598C2.34806 0.225683 2.19198 0.191998 2.0332 0.186882C1.87443 0.181765 1.71611 0.205317 1.56745 0.256172C1.41879 0.307026 1.28275 0.384169 1.16724 0.483118C1.05172 0.582067 0.959032 0.700853 0.894551 0.832573C0.83007 0.964293 0.795085 1.10632 0.791625 1.25041C0.788166 1.3945 0.816302 1.53778 0.8744 1.67192C0.932498 1.80606 1.0194 1.92839 1.13006 2.03181L10.5468 11.0777L1.13006 20.1215Z" fill="#271C6C"/>
</svg>
