<svg width="55" height="51" viewBox="0 0 55 51" fill="none" xmlns="http://www.w3.org/2000/svg">
<path d="M51.8555 0H37.9248C36.1934 0 34.7848 1.40867 34.7848 3.14004V5.83116C34.7848 5.83295 34.7842 5.83473 34.7842 5.83711C34.7842 5.8395 34.7848 5.84069 34.7848 5.84307V23.97C34.7848 23.9718 34.7842 23.9736 34.7842 23.976C34.7842 23.9784 34.7848 23.9796 34.7848 23.9819V26.6492C34.7848 28.3812 36.1934 29.7905 37.9248 29.7905H51.8555C53.5893 29.7905 55.0003 28.3812 55.0003 26.6492V3.14004C55.0003 1.40867 53.5893 0 51.8555 0ZM36.5144 6.7022H53.2702V23.1109H36.5144V6.7022ZM37.9248 1.73018H51.8555C52.6361 1.73018 53.2702 2.36247 53.2702 3.14004V4.97203H36.5144V3.14004C36.5144 2.36247 37.1472 1.73018 37.9248 1.73018ZM51.8555 28.0609H37.9248C37.1472 28.0609 36.515 27.428 36.515 26.6498V24.8417H53.2708V26.6492C53.2702 27.4274 52.6361 28.0609 51.8555 28.0609Z" fill="white"/>
<path d="M49.246 33.7422C48.7679 33.7422 48.3809 34.1292 48.3809 34.6073V45.8653H30.2284C29.7503 45.8653 29.3633 46.2523 29.3633 46.7304C29.3633 47.2085 29.7503 47.5955 30.2284 47.5955H49.246C49.7241 47.5955 50.1111 47.2085 50.1111 46.7304V34.6079C50.1111 34.1298 49.7241 33.7422 49.246 33.7422Z" fill="white"/>
<path d="M9.42466 26.5518C9.90275 26.5518 10.2897 26.1648 10.2897 25.6867V7.77705H29.5509C30.029 7.77705 30.416 7.39005 30.416 6.91196C30.416 6.43387 30.029 6.04688 29.5509 6.04688H9.42466C8.94657 6.04688 8.55957 6.43387 8.55957 6.91196V25.6867C8.55957 26.1648 8.94657 26.5518 9.42466 26.5518Z" fill="white"/>
<path d="M24.0833 39.3555C23.6052 39.3555 23.2182 39.7425 23.2182 40.2206V48.7107H18.6898V40.2206C18.6898 39.7425 18.3028 39.3555 17.8247 39.3555C17.3466 39.3555 16.9596 39.7425 16.9596 40.2206V48.7107H11.3529V40.2206C11.3529 39.7425 10.9659 39.3555 10.4878 39.3555C10.0097 39.3555 9.62271 39.7425 9.62271 40.2206V48.7107H5.05733V40.2206C5.05733 39.7425 4.67033 39.3555 4.19224 39.3555C3.71415 39.3555 3.32715 39.7425 3.32715 40.2206V49.5758C3.32715 50.0539 3.71415 50.4409 4.19224 50.4409H24.0833C24.5614 50.4409 24.9484 50.0539 24.9484 49.5758V40.2206C24.9484 39.7431 24.5614 39.3555 24.0833 39.3555Z" fill="white"/>
<path d="M28.3574 36.6806L14.8696 28.9734C14.6047 28.8216 14.279 28.8216 14.0135 28.9722L0.4382 36.6794C0.153013 36.8413 -0.00119078 37.1414 0.00416765 37.4474C0.00357227 37.4611 0 37.4742 0 37.4885C0 37.9666 0.386997 38.3536 0.865088 38.3536H27.5233C27.6364 38.3536 27.7436 38.3304 27.843 38.2911C28.1716 38.3233 28.505 38.1667 28.6795 37.8606C28.9165 37.4463 28.7718 36.9176 28.3574 36.6806ZM14.4392 30.7196L24.7702 36.6234H4.04085L14.4392 30.7196Z" fill="white"/>
</svg>
