<svg width="60" height="54" viewBox="0 0 60 54" fill="none" xmlns="http://www.w3.org/2000/svg">
<path d="M59.9873 40.5266C59.8524 36.687 58.6556 32.0613 56.619 27.5019C54.5825 22.9382 51.9368 18.958 49.1691 16.2945C46.1928 13.4296 43.3458 12.3806 41.1422 13.3304C41.1243 13.3375 41.1057 13.3404 41.0879 13.3482L38.5029 14.5029V8.43894C38.5029 8.43037 38.5044 8.4218 38.5044 8.41323C38.5044 3.61679 30.2282 0 19.2529 0C8.30041 0 0.0371317 3.60251 0.00285609 8.38396C0.00285609 8.39395 0 8.40324 0 8.41395V19.2536C0 19.3107 0.00785495 19.3664 0.0171379 19.4207C0.00785495 19.4757 0 19.5307 0 19.5878C0 19.6856 0.00856913 19.7813 0.0157099 19.8777C0.00785505 19.9291 0 19.9798 0 20.0334V30.873C0 30.9309 0.00785495 30.9866 0.0171379 31.0416C0.00785495 31.0965 0 31.1522 0 31.2101C0 31.3322 0.0092826 31.4529 0.0192797 31.5728C0.00714037 31.6357 0 31.7007 0 31.7671V42.6067C0 42.6638 0.00785495 42.7195 0.0171379 42.7738C0.00785495 42.8288 0 42.8838 0 42.9409C0 47.7366 8.27756 51.3527 19.2543 51.3527C26.2273 51.3527 32.5818 49.7617 35.9265 47.2468C38.92 51.1328 42.1404 53.4235 44.8375 53.4235C45.4523 53.4235 46.0414 53.305 46.5927 53.0586L56.7575 48.5178C56.7675 48.5135 56.7783 48.5107 56.7883 48.5064C58.9983 47.5203 60.1344 44.6861 59.9873 40.5266ZM31.1944 17.7676L30.8859 17.9033C28.7629 18.8523 27.6904 21.4687 27.6547 25.0526C25.0912 25.6132 22.2177 25.9224 19.255 25.9224C9.13088 25.9224 2.07582 22.5841 2.07582 19.5871C2.07582 19.53 2.06796 19.4743 2.05868 19.42C2.06796 19.365 2.07582 19.31 2.07582 19.2529V12.3314C5.1949 15.047 11.5587 16.8265 19.2536 16.8265C26.9463 16.8265 33.308 15.0484 36.4285 12.3335V15.4297L31.1944 17.7676ZM2.05868 31.0416C2.06796 30.9866 2.07582 30.9309 2.07582 30.873V23.5052C5.19632 26.2194 11.5602 27.9982 19.255 27.9982C22.2242 27.9982 25.1312 27.7133 27.7454 27.172C27.9846 29.8076 28.6908 32.8203 29.8669 36.0037C26.7193 37.0227 23.1582 37.5446 19.255 37.5446C9.13088 37.5446 2.07582 34.2063 2.07582 31.2108C2.07582 31.1522 2.06796 31.0965 2.05868 31.0416ZM19.2536 2.0751C29.3671 2.0751 36.4164 5.40912 36.4293 8.40538C36.4293 8.40823 36.4285 8.41038 36.4285 8.41323V8.43251C36.3986 11.4252 29.3542 14.7514 19.2536 14.7514C9.13088 14.7514 2.07724 11.4109 2.07724 8.41323C2.07724 5.41555 9.13088 2.0751 19.2536 2.0751ZM19.255 49.2783C9.13088 49.2783 2.07582 45.9386 2.07582 42.9416C2.07582 42.8845 2.06796 42.8288 2.05868 42.7745C2.06796 42.7195 2.07582 42.6646 2.07582 42.6074V35.1275C5.19632 37.8417 11.5602 39.6197 19.255 39.6197C23.4267 39.6197 27.2441 39.0492 30.6295 37.936C30.7659 38.2609 30.9066 38.5872 31.053 38.9142C32.1627 41.3978 33.4101 43.6293 34.7219 45.5666C31.7971 47.8066 25.7531 49.2783 19.255 49.2783ZM46.0307 51.0342L45.7372 51.1692C42.9959 52.386 37.0755 47.3075 32.9474 38.0673C28.8236 28.8244 28.9979 21.0202 31.7285 19.7999L38.3701 16.8343C37.9945 18.0747 37.8267 19.5835 37.8888 21.3294C38.0238 25.1683 39.2206 29.7955 41.2578 34.3592C43.2944 38.9207 45.94 42.8988 48.7078 45.5623C49.9696 46.7755 51.2049 47.6509 52.381 48.1994L46.0307 51.0342ZM55.9464 46.6098C55.9449 46.6105 55.9428 46.6105 55.9414 46.6113L55.9342 46.6141C54.5675 47.2182 52.4567 46.2906 50.1466 44.067C47.5667 41.5842 45.0824 37.836 43.153 33.513C41.2221 29.1878 40.0889 24.8355 39.9625 21.2566C39.8497 18.0447 40.5695 15.8539 41.9376 15.2441C42.214 15.1213 42.5189 15.0606 42.8502 15.0606C44.1641 15.0606 45.8822 16.011 47.7302 17.789C50.3102 20.2719 52.7937 24.0215 54.7239 28.3474C56.6547 32.6689 57.7873 37.0205 57.9136 40.5995C58.0272 43.8071 57.3095 45.9971 55.9464 46.6098Z" fill="white"/>
</svg>
