<svg width="60" height="60" viewBox="0 0 60 60" fill="none" xmlns="http://www.w3.org/2000/svg">
<path d="M33.8249 9.85987V7.23038H36.2751C36.7531 7.23038 37.1715 6.81206 37.1715 6.33397V2.03118C37.1715 1.55309 36.7531 1.13477 36.2751 1.13477H25.8169C25.3388 1.13477 24.9205 1.55309 24.9205 2.03118V6.33397C24.9205 6.81206 25.3388 7.23038 25.8169 7.23038H28.2671V9.85987C22.4703 10.5172 17.3308 13.2065 13.4464 17.1507L12.4304 16.1348L14.1037 14.4615C14.4623 14.1029 14.4623 13.565 14.1037 13.2065L10.6376 9.74034C10.279 9.38178 9.74118 9.38178 9.38262 9.74034L4.6615 14.3419C4.30294 14.7005 4.30294 15.2384 4.6615 15.5969L8.12764 19.0631C8.30692 19.2423 8.54596 19.3021 8.78501 19.3021C9.02405 19.3021 9.2631 19.2423 9.44238 19.0631L11.1754 17.33L12.3109 18.4654C8.72525 22.7085 6.57385 28.2065 6.57385 34.1826C6.57385 47.6886 17.5699 58.6846 31.0758 58.6846C44.5818 58.6846 55.5778 47.6886 55.5778 34.1826C55.5181 21.6328 46.0161 11.2344 33.8249 9.85987ZM8.78501 17.2105L6.57385 14.9395L9.92047 11.5929L12.1316 13.8041L10.8169 15.1188C10.6376 15.2981 10.3986 15.5372 10.1595 15.7762L8.78501 17.2105ZM29.1635 5.43755H26.7133V2.92759H35.3786V5.43755H32.9284C32.4503 5.43755 32.032 5.85588 32.032 6.33397V9.74034C31.7332 9.74034 31.3747 9.74034 31.0758 9.74034C30.777 9.74034 30.4185 9.74034 30.1197 9.74034V6.33397C30.0599 5.79612 29.6416 5.43755 29.1635 5.43755ZM31.0161 56.8917C18.526 56.8917 8.30692 46.7324 8.30692 34.1826C8.30692 21.6328 18.4663 11.4734 31.0161 11.4734C31.4942 11.4734 31.9723 11.4734 32.4503 11.5332C32.6894 11.5332 32.9284 11.5929 33.1675 11.5929C44.7013 12.6686 53.7253 22.4097 53.7253 34.1826C53.7253 46.7324 43.5659 56.8917 31.0161 56.8917Z" fill="white"/>
<path d="M43.9246 19.4813C43.8649 19.4215 43.8051 19.3617 43.7453 19.302C40.339 16.3737 35.9166 14.6406 31.076 14.6406C20.2593 14.6406 11.5342 23.4255 11.5342 34.1825C11.5342 44.9394 20.2593 53.784 31.0163 53.784C41.7732 53.784 50.5581 44.9992 50.5581 34.2422C50.6178 28.3259 47.9884 23.0669 43.9246 19.4813ZM31.0163 51.9912C21.2155 51.9912 13.2672 44.043 13.2672 34.2422C13.2672 24.4414 21.2155 16.4932 31.0163 16.4932C35.1398 16.4932 38.9047 17.9275 41.8927 20.2582L32.2115 31.3737C31.8529 31.2542 31.4346 31.1346 31.076 31.1346C29.4027 31.1346 28.0282 32.5091 28.0282 34.1825C28.0282 35.8558 29.4027 37.2303 31.076 37.2303C32.7493 37.2303 34.0641 35.8558 34.0641 34.1825C34.0641 33.5848 33.8848 32.9872 33.586 32.5092L43.327 21.3339C46.7334 24.5609 48.825 29.1028 48.825 34.1825C48.825 43.9833 40.817 51.9912 31.0163 51.9912ZM32.2712 34.1825C32.2712 34.8996 31.7334 35.4374 31.0163 35.4374C30.2991 35.4374 29.7613 34.8996 29.7613 34.1825C29.7613 33.5251 30.2991 32.9275 31.0163 32.9275C31.7334 32.9275 32.2712 33.5251 32.2712 34.1825Z" fill="white"/>
</svg>
