<svg width="60" height="60" viewBox="0 0 60 60" fill="none" xmlns="http://www.w3.org/2000/svg">
<path d="M54.6488 35.6335C53.8294 34.4681 52.3364 34.0613 51.075 34.5401C51.0232 34.0286 50.8547 33.5349 50.5516 33.1031C49.5898 31.728 47.6847 31.3921 46.328 32.339L45.8248 32.6678C45.7623 32.186 45.5991 31.7209 45.3121 31.3111C44.3479 29.9384 42.4434 29.6025 41.0653 30.5643C41.0498 30.5751 41.0385 30.5882 41.0242 30.6001C41.0183 30.6048 41.0111 30.6054 41.0052 30.6108C37.0038 33.9595 32.1186 37.4225 30.8686 37.4225C29.9431 37.4225 27.1262 35.8449 24.8638 34.577C21.979 32.9614 19.2545 31.435 17.6912 31.3141C14.7558 31.1009 5.79662 36.3017 4.78302 36.8966C4.37091 37.1384 4.23274 37.6685 4.47453 38.0806C4.71632 38.4921 5.24634 38.6308 5.65845 38.389C9.30669 36.2475 15.7492 32.8953 17.5578 33.0406C18.7405 33.1317 21.5443 34.7021 24.0176 36.0879C27.2805 37.9156 29.3911 39.0435 30.6929 39.1358C30.7495 39.1478 30.8084 39.1537 30.8686 39.1537H36.806C37.8887 39.1537 38.7701 40.0351 38.7701 41.119C38.7701 42.2028 37.8893 43.0854 36.806 43.0854C36.7977 43.0854 36.79 43.0878 36.7816 43.0878C36.7691 43.0884 36.7578 43.086 36.7453 43.0872C36.6869 43.092 30.8829 43.4957 28.4894 43.0967C26.2466 42.7227 23.3803 40.178 23.3518 40.1524C22.9956 39.8326 22.4483 39.8636 22.1303 40.2197C21.8117 40.5759 21.8415 41.1225 22.197 41.4412C22.3292 41.5597 25.4647 44.3474 28.2048 44.8041C29.0998 44.953 30.3802 45.0019 31.6833 45.0019C34.1535 45.0019 36.7054 44.825 36.8668 44.8137H36.8686C38.8767 44.7797 40.5007 43.1372 40.5007 41.1196C40.5007 39.0817 38.8434 37.4237 36.806 37.4237H34.7783C37.7023 35.5775 41.073 32.8101 42.0694 31.9775C42.6655 31.5714 43.4814 31.7173 43.8947 32.3057C44.0966 32.5939 44.174 32.9441 44.1121 33.2919C44.0501 33.6397 43.8584 33.9416 43.5707 34.1435C43.5558 34.1542 43.5439 34.1673 43.5296 34.1786C43.5004 34.2019 43.4707 34.2245 43.4457 34.2507C43.4302 34.2668 43.4177 34.2846 43.4034 34.3013C43.3813 34.3281 43.3587 34.3543 43.3402 34.3829C43.3277 34.4025 43.3182 34.4234 43.3075 34.4436C43.292 34.4722 43.2759 34.5002 43.264 34.5306C43.2551 34.5532 43.2497 34.577 43.2426 34.6003C43.2336 34.63 43.2235 34.6586 43.2176 34.689C43.2128 34.714 43.2116 34.7396 43.2092 34.7646C43.2062 34.7944 43.2021 34.8236 43.2021 34.8534C43.2021 34.8802 43.2062 34.907 43.2086 34.9338C43.2116 34.9624 43.2128 34.9903 43.2182 35.0183C43.2235 35.0469 43.2336 35.0749 43.2426 35.1035C43.2503 35.1291 43.2569 35.1547 43.267 35.1803C43.2789 35.2095 43.2956 35.2369 43.3111 35.2649C43.3218 35.2845 43.3295 35.3054 43.342 35.325C43.3444 35.3286 43.3474 35.3316 43.3498 35.3352C43.3527 35.3393 43.3539 35.3441 43.3569 35.3477C43.3659 35.3602 43.3778 35.3691 43.3867 35.381C43.4159 35.4191 43.4468 35.4543 43.4814 35.4864C43.4987 35.5025 43.5165 35.5162 43.5344 35.5305C43.5677 35.5561 43.6017 35.5793 43.6374 35.6002C43.6577 35.6121 43.6773 35.6234 43.6988 35.6329C43.7381 35.6514 43.7792 35.6657 43.8202 35.6776C43.8393 35.6829 43.8572 35.6907 43.8762 35.6949C43.9358 35.708 43.9965 35.7157 44.0579 35.7163C44.0608 35.7163 44.0632 35.7175 44.0656 35.7175C44.0733 35.7175 44.0811 35.7139 44.0888 35.7139C44.1549 35.7121 44.2204 35.7014 44.2854 35.6841C44.305 35.6788 44.3247 35.674 44.3443 35.6675C44.411 35.6442 44.4765 35.6162 44.5385 35.5757L47.2952 33.7737C47.8931 33.358 48.7167 33.5021 49.133 34.0976C49.3349 34.3847 49.4129 34.7337 49.3516 35.0797C49.2902 35.4275 49.0973 35.73 48.8084 35.9325L47.9235 36.5524C47.5322 36.827 47.4375 37.3665 47.7115 37.7578C47.88 37.9978 48.148 38.1264 48.4207 38.1264C48.5923 38.1264 48.7656 38.0758 48.9168 37.9698L49.7875 37.3594L51.3925 36.3071C51.9892 35.8908 52.814 36.0349 53.2297 36.6269C53.6465 37.2242 53.5 38.0496 52.9033 38.4659C52.9033 38.4659 52.9021 38.4671 52.9009 38.4677C43.5088 45.0614 32.8559 51.894 31.2878 51.913C30.1224 51.913 27.5473 50.3777 25.2747 49.0235C22.711 47.4954 20.2895 46.0518 18.5791 45.8237C15.1644 45.3705 9.90639 49.3278 9.31801 49.781C8.93925 50.0722 8.86897 50.6154 9.15959 50.9941C9.45081 51.3735 9.99453 51.4437 10.3733 51.1525C11.8151 50.0448 16.0577 47.2327 18.3505 47.54C19.7083 47.7211 22.1946 49.2027 24.3886 50.5105C27.0923 52.1221 29.6454 53.6442 31.2872 53.6442C34.15 53.6442 50.6236 42.1814 53.8973 39.8838C53.9467 39.8493 53.9908 39.8106 54.0307 39.7683C55.2866 38.7761 55.5779 36.9663 54.6488 35.6335Z" fill="white"/>
<path d="M24.0743 19.7383C27.5444 19.7383 30.3673 16.9155 30.3673 13.4453C30.3673 9.97517 27.5438 7.15234 24.0743 7.15234C20.6047 7.15234 17.7812 9.97517 17.7812 13.4453C17.7812 16.9155 20.6041 19.7383 24.0743 19.7383ZM24.0743 8.88296C26.5904 8.88296 28.6366 10.9298 28.6366 13.4453C28.6366 15.9609 26.5898 18.0077 24.0743 18.0077C21.5587 18.0077 19.5119 15.9609 19.5119 13.4453C19.5119 10.9298 21.5587 8.88296 24.0743 8.88296Z" fill="white"/>
<path d="M39.6349 18.2796C42.3011 18.2796 44.4701 16.1107 44.4701 13.4445C44.4701 10.7783 42.3005 8.60938 39.6349 8.60938C36.9693 8.60938 34.7998 10.7783 34.7998 13.4445C34.7998 16.1107 36.9687 18.2796 39.6349 18.2796ZM39.6349 10.34C41.3465 10.34 42.7395 11.7324 42.7395 13.4445C42.7395 15.1567 41.3465 16.549 39.6349 16.549C37.9234 16.549 36.5304 15.1567 36.5304 13.4445C36.5304 11.7324 37.9234 10.34 39.6349 10.34Z" fill="white"/>
<path d="M25.3311 26.9115C25.3311 30.3811 28.1539 33.204 31.6229 33.204C35.0924 33.204 37.9153 30.3811 37.9153 26.9115C37.9153 23.442 35.0924 20.6191 31.6229 20.6191C28.1539 20.6191 25.3311 23.442 25.3311 26.9115ZM31.6235 22.3498C34.139 22.3498 36.1852 24.396 36.1852 26.9115C36.1852 29.4271 34.1384 31.4733 31.6235 31.4733C29.1085 31.4733 27.0623 29.4271 27.0623 26.9115C27.0623 24.396 29.1079 22.3498 31.6235 22.3498Z" fill="white"/>
</svg>
