<svg width="60" height="60" viewBox="0 0 60 60" fill="none" xmlns="http://www.w3.org/2000/svg">
<g clip-path="url(#clip0_634_4919)">
<path d="M6.42744 45.33C5.92461 45.33 5.51758 45.737 5.51758 46.2399C5.51758 46.7427 5.92461 47.1497 6.42744 47.1497H53.2387C53.7416 47.1497 54.1486 46.7427 54.1486 46.2399C54.1486 45.737 53.7416 45.33 53.2387 45.33H48.1609V18.4737H53.2387C53.7416 18.4737 54.1486 18.0667 54.1486 17.5638C54.1486 17.061 53.7416 16.654 53.2387 16.654H11.6405C11.5591 16.6302 11.4752 16.6133 11.3863 16.6133C11.2974 16.6133 11.2128 16.6302 11.1321 16.654H6.42744C5.92461 16.654 5.51758 17.061 5.51758 17.5638C5.51758 18.0667 5.92461 18.4737 6.42744 18.4737H10.4802V45.33H6.42744ZM24.6184 45.33V18.4737H34.6726V45.33H24.6184ZM46.3412 45.33H36.4924V18.4737H46.3412V45.33ZM12.2924 18.4737H22.7987V45.33H12.2924V18.4737Z" fill="white"/>
<path d="M58.756 52.7402H0.909863C0.407028 52.7402 0 53.1473 0 53.6501C0 54.1529 0.407028 54.56 0.909863 54.56H58.756C59.2588 54.56 59.6659 54.1529 59.6659 53.6501C59.6659 53.1473 59.2588 52.7402 58.756 52.7402Z" fill="white"/>
<path d="M59.5412 16.6463L30.6178 0.119683C30.3392 -0.0393711 29.996 -0.0399972 29.7174 0.11843L0.604238 16.645C0.167153 16.893 0.0143611 17.4484 0.262335 17.8855C0.430155 18.1811 0.737618 18.3464 1.05447 18.3464C1.20664 18.3464 1.36068 18.3082 1.50283 18.228L30.1651 1.95694L58.6389 18.2261C59.0734 18.4741 59.6295 18.3245 59.88 17.8874C60.1292 17.4515 59.9777 16.8961 59.5412 16.6463Z" fill="white"/>
</g>
<defs>
<clipPath id="clip0_634_4919">
<rect width="60" height="60" fill="white"/>
</clipPath>
</defs>
</svg>
