<svg width="60" height="60" viewBox="0 0 60 60" fill="none" xmlns="http://www.w3.org/2000/svg">
<path d="M21.0216 34.8599V30.3788C24.3235 29.9907 26.874 27.6302 26.874 24.7765C26.874 21.9254 24.3235 19.5663 21.0216 19.1782V11.665C23.2723 12.0053 24.9755 13.5309 24.9755 15.3569C24.9755 15.8815 25.4001 16.3062 25.9247 16.3062C26.4494 16.3062 26.874 15.8815 26.874 15.3569C26.874 12.5032 24.3228 10.1421 21.0216 9.75595V5.2735C21.0216 4.74888 20.5969 4.32422 20.0723 4.32422C19.5477 4.32422 19.123 4.74888 19.123 5.2735V9.7566C15.8185 10.1427 13.2646 12.5038 13.2646 15.3582C13.2646 18.2093 15.8185 20.5678 19.123 20.9539V28.4717C16.8697 28.1326 15.1632 26.6058 15.1632 24.7772C15.1632 24.2525 14.7385 23.8279 14.2139 23.8279C13.6893 23.8279 13.2646 24.2525 13.2646 24.7772C13.2646 27.6335 15.8185 29.9959 19.123 30.3807V34.8606C19.123 35.3852 19.5477 35.8098 20.0723 35.8098C20.5969 35.8098 21.0216 35.3845 21.0216 34.8599ZM24.9755 24.7765C24.9755 26.6025 23.2729 28.1281 21.0216 28.4697V21.0872C23.2729 21.4289 24.9755 22.9524 24.9755 24.7765ZM15.1632 15.3575C15.1632 13.5309 16.869 12.0053 19.123 11.6656V19.0442C16.869 18.7045 15.1632 17.1816 15.1632 15.3575Z" fill="white"/>
<path d="M40.135 20.0655C40.135 9.00084 31.1328 0 20.0675 0C9.00214 0 0 9.00084 0 20.0655C0 31.1302 9.00214 40.1324 20.0675 40.1324C31.1328 40.1324 40.135 31.1302 40.135 20.0655ZM1.89856 20.0655C1.89856 10.0481 10.0488 1.89856 20.0675 1.89856C30.0862 1.89856 38.2364 10.0481 38.2364 20.0655C38.2364 30.0836 30.0862 38.2338 20.0675 38.2338C10.0488 38.2338 1.89856 30.0842 1.89856 20.0655Z" fill="white"/>
<path d="M59.9703 38.3748L57.9783 30.6153C57.8489 30.109 57.3302 29.8039 56.8258 29.9313L49.1199 31.8828C48.6116 32.0108 48.3039 32.5276 48.4326 33.0359C48.5606 33.5442 49.0794 33.8512 49.5857 33.7232L55.0952 32.3283L45.0751 47.9192L38.6079 38.4911C38.423 38.2219 38.1257 38.0867 37.7834 38.0795C37.4561 38.0939 37.1595 38.2762 36.9981 38.561L28.303 53.9553L19.116 47.2332C18.724 46.9464 18.1765 47.002 17.8498 47.3646L8.29825 57.9837C7.94742 58.3737 7.97943 58.9741 8.36947 59.3243C8.55109 59.4876 8.77779 59.568 9.00384 59.568C9.26387 59.568 9.52258 59.4621 9.71009 59.2537L18.6874 49.2729L28.0436 56.1191C28.2625 56.2792 28.5408 56.3393 28.8041 56.2805C29.0694 56.2236 29.2974 56.0557 29.4307 55.8199L37.903 40.8222L44.3179 50.1732C44.4976 50.4352 44.7916 50.5913 45.115 50.5854C45.4332 50.5802 45.7278 50.4169 45.8996 50.149L56.7134 33.3233L58.1318 38.8478C58.2416 39.2764 58.6277 39.5613 59.0504 39.5613C59.1281 39.5613 59.2078 39.5515 59.2869 39.5312C59.7945 39.3999 60.1009 38.8825 59.9703 38.3748Z" fill="white"/>
</svg>
